<?xml version="1.0" encoding="UTF-8" standalone="no"?>
<!-- Created with Inkscape (http://www.inkscape.org/) -->

<svg
   width="500"
   height="500"
   viewBox="0 0 132.29167 132.29166"
   version="1.1"
   id="svg5"
   inkscape:version="1.1.2 (0a00cf5339, 2022-02-04)"
   sodipodi:docname="LoyaltyGift2_FreeDonought_Voucher.svg"
   xmlns:inkscape="http://www.inkscape.org/namespaces/inkscape"
   xmlns:sodipodi="http://sodipodi.sourceforge.net/DTD/sodipodi-0.dtd"
   xmlns="http://www.w3.org/2000/svg"
   xmlns:svg="http://www.w3.org/2000/svg">
  <sodipodi:namedview
     id="namedview7"
     pagecolor="#ffffff"
     bordercolor="#000000"
     borderopacity="0.25"
     inkscape:pageshadow="2"
     inkscape:pageopacity="0.0"
     inkscape:pagecheckerboard="0"
     inkscape:document-units="mm"
     showgrid="false"
     units="px"
     width="300px"
     inkscape:zoom="1.3273709"
     inkscape:cx="135.60641"
     inkscape:cy="243.71485"
     inkscape:window-width="1920"
     inkscape:window-height="1016"
     inkscape:window-x="0"
     inkscape:window-y="0"
     inkscape:window-maximized="1"
     inkscape:current-layer="layer1" />
  <defs
     id="defs2" />
  <g
     inkscape:label="Layer 1"
     inkscape:groupmode="layer"
     id="layer1">
    <g
       id="SVGRepo_bgCarrier-0"
       stroke-width="0"
       transform="matrix(0.12930839,0,0,0.12930839,-4.0069537,0.43606478)" />
    <g
       id="SVGRepo_tracerCarrier-6"
       stroke-linecap="round"
       stroke-linejoin="round"
       transform="matrix(0.12930839,0,0,0.12930839,-4.0069537,0.43606478)" />
    <g
       id="SVGRepo_bgCarrier"
       stroke-width="0"
       transform="matrix(0.1233123,0,0,0.1233123,-1.9293776,-8.8725303)" />
    <g
       id="SVGRepo_tracerCarrier"
       stroke-linecap="round"
       stroke-linejoin="round"
       transform="matrix(0.1233123,0,0,0.1233123,-1.9293776,-8.8725303)" />
    <g
       id="g20076">
      <rect
         style="fill:#d2cddf;fill-opacity:1;stroke:#e9933b;stroke-width:1.797;stroke-miterlimit:4;stroke-dasharray:none;stroke-opacity:1;stop-color:#000000"
         id="rect1024"
         width="132.42368"
         height="131.92612"
         x="0.057618521"
         y="0.39242876"
         ry="0.13213767" />
      <text
         xml:space="preserve"
         style="font-size:5.67009px;line-height:1.25;font-family:Sarai;-inkscape-font-specification:Sarai;text-decoration-color:#000000;fill:#e9933b;fill-opacity:1;stroke:none;stroke-width:3.38331;stop-color:#000000"
         x="15.441346"
         y="129.42186"
         id="text3815"><tspan
           sodipodi:role="line"
           id="tspan3813"
           style="fill:#e9933b;fill-opacity:1;stroke:none;stroke-width:3.38331"
           x="15.441346"
           y="129.42186">Image from: https://www.svgrepo.com/svg/475355/donut</tspan></text>
      <g
         id="g20054">
        <path
           d="m 13.877476,58.83338 c 0.438234,0.301865 0.878718,0.601347 1.342505,0.88984 7.097404,4.402464 16.591325,1.699713 20.734159,-5.650571 0.226267,-0.4005 0.422743,-0.811063 0.610218,-1.222685 1.50906,0.07004 3.092131,-0.105256 4.728689,-0.573676 7.359286,-2.103523 13.571351,-11.358865 10.584476,-19.376031 a 53.431442,53.431442 0 0 0 -3.002234,-6.63044 c 6.505987,0.165364 10.872968,-9.787842 3.907564,-13.59346 -0.5137,-0.280682 -1.03071,-0.554744 -1.54772,-0.828806 4.263712,-1.204415 8.746143,-1.859515 13.377124,-1.859515 28.104432,0 50.887833,23.678667 50.887833,52.890468 0,29.209418 -22.783401,52.889276 -50.887833,52.889276 -28.103374,0 -50.887833,-23.679858 -50.887831,-52.889276 0,-1.362365 0.05653,-2.709238 0.15305,-4.045124 z m 52.205975,21.849206 c 8.57853,0 15.530561,-6.953092 15.530561,-15.530561 0,-8.577469 -6.952163,-15.529634 -15.530561,-15.529634 -8.57641,0 -15.529633,6.952164 -15.529633,15.529634 0,8.577469 6.953223,15.530561 15.529633,15.530561 z"
           fill="#e9933b"
           id="path927"
           style="stroke-width:0.129308" />
        <path
           d="m 119.7593,53.54518 h 4.5534 c 0.51264,2.383146 0.85978,4.633894 1.04739,6.884642 h -4.45569 c -0.21316,-2.250748 -0.58705,-4.501496 -1.1451,-6.884642 z"
           fill="#221714"
           id="path929"
           style="stroke-width:0.129308" />
        <path
           d="m 9.9488613,62.774308 a 2.2192379,2.2192379 0 0 1 1.5077357,-1.994957 c 0.865347,-0.290612 1.821782,-0.02436 2.40764,0.676813 1.899367,2.262267 4.664211,3.458341 7.994923,3.458341 5.202406,0 9.025632,-2.990186 10.229518,-8.000483 0.26731,-1.109487 1.335885,-1.837274 2.458611,-1.679722 0.765652,0.10433 1.453455,0.155302 2.103657,0.155302 9.149953,0 16.879685,-7.728805 16.879685,-16.879685 0,-2.53858 -0.574602,-4.99375 -1.708582,-7.29825 a 2.2173843,2.2173843 0 0 1 0.483777,-2.607294 c 2.80814,-2.598423 4.417954,-6.213125 4.417954,-9.914415 0,-2.352163 -0.654569,-4.699827 -1.892746,-6.788918 a 2.2204295,2.2204295 0 0 1 -0.1177,-2.0326908 2.2168548,2.2168548 0 0 1 1.587704,-1.2736588 c 3.767753,-0.7594289 7.607794,-1.1449689 11.40997,-1.1449689 22.848803,0 42.616462,13.3348895 52.000632,32.6189045 0,0 0.24851,2.078103 -1.97047,2.078103 -2.06592,0 -3.0344,-2.045798 -3.15767,-2.327671 -9.05674,-16.615819 -26.652166,-27.93192 -46.872492,-27.93192 -2.562941,0 -5.143622,0.189593 -7.705503,0.565732 0.760091,2.002107 1.15609,4.1145 1.15609,6.236957 0,4.406965 -1.698653,8.7051 -4.706448,12.022438 1.0041,2.489724 1.512239,5.105756 1.512239,7.79752 0,11.555341 -9.761231,21.317631 -21.316574,21.317631 -0.26519,0 -0.533692,-0.0066 -0.806694,-0.01986 -2.162308,5.935753 -7.368023,9.543702 -13.984958,9.543702 -2.792517,0 -5.322226,-0.620147 -7.495788,-1.820591 1.181775,28.404048 24.658405,50.979853 53.347636,50.979853 25.913263,0 47.553682,-19.420785 52.372262,-43.252238 h 4.49012 C 119.69601,102.53206 96.077189,122.9474 67.711008,122.9474 c -31.889,0 -57.8320534,-25.859903 -57.8320534,-57.749963 0,-0.730037 0.02211,-1.420089 0.069907,-2.423129 z"
           fill="#221714"
           id="path931"
           style="stroke-width:0.129308" />
        <path
           d="m 120.03455,75.551277 c 0,1.332443 0.99298,2.413067 2.21898,2.413067 1.2248,0 2.31999,-1.080624 2.31999,-2.413067 0,-1.332576 -1.09506,-2.41214 -2.31999,-2.41214 -1.226,0 -2.21898,1.079564 -2.21898,2.41214 z M 120.8766,60.46557 c 0,1.332442 0.98079,2.413067 2.19236,2.413067 1.21037,0 2.29113,-1.080625 2.29113,-2.413067 0,-1.332575 -1.08063,-2.4132 -2.29113,-2.4132 -1.21157,-1.29e-4 -2.19236,1.080625 -2.19236,2.4132 z m -1.0707,-6.620378 c 0.25632,1.308082 1.47001,2.170251 2.71043,1.928362 1.24162,-0.244141 2.03825,-1.502309 1.78074,-2.809331 -0.25632,-1.307023 -1.46894,-2.170119 -2.70937,-1.926112 -1.24149,0.243082 -2.03812,1.500058 -1.7818,2.807081 z"
           fill="#221714"
           id="path933"
           style="stroke-width:0.129308" />
        <path
           d="m 115.04729,55.813405 c 0,0 -8.14135,-7.562249 -9.32406,0 -1.1827,7.564501 -3.54823,6.565962 -5.61958,7.065232 -2.071487,0.499269 -3.846665,-2.163498 -2.959077,-4.826399 0.88759,-2.662768 1.479008,2.999056 2.662769,-5.600657 1.183898,-8.59852 0.296308,-10.964984 -0.88759,-10.077526 -1.183893,0.886529 -5.324475,7.669888 -5.91576,10.195228 -0.592477,2.525075 1.182701,5.7782 -1.183895,8.145856 -2.366595,2.366594 -7.395827,-2.40764 -6.212065,-4.901734 1.183894,-2.494093 1.479007,-1.015087 2.366464,-6.190882 0.887589,-5.176854 2.661708,-7.544508 1.182702,-9.023514 -1.478874,-1.478875 -13.351572,11.062692 -13.311588,15.214396 0.04118,4.152896 -6.186514,-6.306332 -11.080434,-4.1051 -4.893922,2.202423 -4.876181,5.456477 -4.144952,-4.897231 0.731096,-10.352648 2.45411,-10.789823 -0.35403,-11.831655 -2.809199,-1.042891 -0.39494,-1.776237 3.155417,-7.692131 3.549165,-5.915761 4.947277,-5.916953 3.804426,-9.76229 -1.142717,-3.844941 0.484971,-5.63786 0.484971,-5.63786 0,0 38.024412,-2.9795936 47.336282,43.926267 z"
           fill="#904c2a"
           id="path935"
           style="stroke-width:0.129308" />
        <path
           d="m 69.92998,90.445009 c 0,1.959342 1.589824,3.549164 3.549167,3.549164 1.960533,0 3.550357,-1.589822 3.550357,-3.549164 0,-1.961594 -1.589824,-3.550358 -3.550357,-3.550358 -1.959343,0 -3.549167,1.588764 -3.549167,3.550358 z m -19.523653,0 c 0,1.959342 1.588897,3.549164 3.549298,3.549164 1.960402,0 3.550357,-1.589822 3.550357,-3.549164 0,-1.961594 -1.589955,-3.550358 -3.550357,-3.550358 -1.960533,0 -3.549298,1.588764 -3.549298,3.550358 z m 7.099655,10.109571 c 0,3.0111 3.244123,5.45091 7.247145,5.45091 4.003023,0 7.247145,-2.43968 7.247145,-5.45091 0,-3.011108 1.811721,-5.45092 -7.247145,-5.45092 -8.911506,0 -7.247145,2.439812 -7.247145,5.45092 z"
           fill="#221714"
           id="path937"
           style="stroke-width:0.129308" />
        <path
           d="m 60.620356,102.8702 c 0,1.10392 1.836214,1.99827 4.100599,1.99827 2.264517,0 4.099539,-0.89421 4.099539,-1.99827 0,-1.10393 -1.835022,-1.99814 -4.099539,-1.99814 -2.264517,-1.3e-4 -4.100599,0.89408 -4.100599,1.99814 z"
           fill="#d9362f"
           id="path939"
           style="stroke-width:0.129308" />
        <path
           d="m 66.083451,80.682586 c 8.565158,0 15.530561,-6.966596 15.530561,-15.530561 0,-8.56317 -6.965403,-15.529634 -15.530561,-15.529634 -8.561979,0 -15.529633,6.966464 -15.529633,15.529634 0,8.563965 6.967654,15.530561 15.529633,15.530561 z m 0,-26.624367 c 6.117667,0 11.093675,4.977198 11.093675,11.093806 0,6.116474 -4.97614,11.093673 -11.093675,11.093673 -6.116606,0 -11.092746,-4.977199 -11.092746,-11.093673 0,-6.116608 4.97614,-11.093806 11.092746,-11.093806 z"
           fill="#060001"
           id="path941"
           style="stroke-width:0.129308" />
        <path
           d="m 102.76535,43.557948 c 0,1.307023 1.05958,2.366596 2.3666,2.366596 1.30795,0 2.36765,-1.059573 2.36765,-2.366596 1e-5,-1.307023 -1.0597,-2.367655 -2.36765,-2.367655 -1.30702,0 -2.3666,1.060632 -2.3666,2.367655 z"
           fill="#e4ca69"
           id="path943"
           style="stroke-width:0.129308" />
        <path
           d="m 82.945396,30.395042 c 0,2.858053 2.318801,5.175663 5.176855,5.175663 2.859112,0 5.177913,-2.317742 5.177913,-5.175663 0,-2.860304 -2.318801,-5.177913 -5.177913,-5.177913 -2.858054,-1.29e-4 -5.176855,2.317609 -5.176855,5.177913 z"
           fill="#51b5be"
           id="path945"
           style="stroke-width:0.129308" />
        <path
           d="m 67.22617,34.260371 c 0,2.134637 1.731885,3.865462 3.866522,3.865462 2.134636,0 3.865461,-1.730825 3.865461,-3.865462 0,-2.135828 -1.730825,-3.865461 -3.865461,-3.865461 -2.134637,1.29e-4 -3.866522,1.729766 -3.866522,3.865461 z"
           fill="#da4d5f"
           id="path947"
           style="stroke-width:0.129308" />
        <path
           d="m 72.148954,17.895445 c 0,1.347007 1.091745,2.441002 2.439811,2.441002 1.347934,0 2.440871,-1.093995 2.440871,-2.441002 0,-1.348066 -1.092805,-2.44087 -2.440871,-2.44087 -1.348066,0 -2.439811,1.092936 -2.439811,2.44087 z"
           fill="#9da523"
           id="path949"
           style="stroke-width:0.129308" />
      </g>
      <g
         id="g5743"
         transform="matrix(2.0012305,0,0,1.7022837,-91.494332,-409.69585)">
        <path
           d="m 77,253 c -1.656,0 -3,1.344 -3,3 0,1.656 1.344,3 3,3 v 4 c 0,1.105 -0.895,2 -2,2 -4.843,0 -17.157,0 -22,0 -1.105,0 -2,-0.895 -2,-2 0,-1.745 0,-4 0,-4 1.656,0 3,-1.344 3,-3 0,-1.656 -1.344,-3 -3,-3 v -4 c 0,-1.105 0.895,-2 2,-2 4.843,0 17.157,0 22,0 1.105,0 2,0.895 2,2 0,1.745 0,4 0,4 z"
           style="fill:#90e0ef"
           id="path1053" />
        <path
           style="fill:#008397;fill-opacity:1;stroke:#000000;stroke-width:0.0146953;stroke-miterlimit:4;stroke-dasharray:none;stroke-opacity:1;stop-color:#000000"
           d="m 53.028618,265.95342 c -1.280027,-0.19275 -2.314449,-1.2105 -2.510521,-2.47007 -0.07767,-0.49896 -0.07748,-4.40259 1.93e-4,-4.70125 0.10835,-0.41642 0.519364,-0.71839 0.980253,-0.72019 0.518777,-0.002 1.085217,-0.26665 1.450769,-0.67775 0.6935,-0.77991 0.697758,-1.93469 0.01,-2.70689 -0.377711,-0.42407 -0.784435,-0.61925 -1.42776,-0.68516 -0.24601,-0.0252 -0.425998,-0.068 -0.537561,-0.12787 -0.218108,-0.11702 -0.43762,-0.40345 -0.489539,-0.63877 -0.06232,-0.28249 -0.05304,-4.22699 0.0109,-4.63353 0.0994,-0.63194 0.342143,-1.11996 0.799626,-1.60758 0.327139,-0.34869 0.854223,-0.67033 1.332501,-0.81312 l 0.309353,-0.0924 h 11.482444 11.482445 l 0.309353,0.094 c 0.839389,0.2549 1.537304,0.85447 1.885286,1.61963 0.27787,0.61099 0.272824,0.55868 0.289543,3.001 0.01051,1.53485 0.0027,2.24436 -0.02648,2.39552 -0.05139,0.26661 -0.257581,0.54795 -0.494868,0.67526 -0.111562,0.0599 -0.29155,0.10266 -0.537559,0.12787 -0.203413,0.0208 -0.459918,0.0685 -0.570011,0.10587 -0.909134,0.30878 -1.491169,1.25828 -1.35332,2.20774 0.08987,0.61898 0.480287,1.19992 0.99454,1.47986 0.327766,0.17843 0.464343,0.22054 0.895003,0.27598 0.407549,0.0525 0.684087,0.16449 0.842532,0.34129 0.253638,0.28302 0.240797,0.13947 0.240797,2.69206 0,2.59421 0.0047,2.54138 -0.279148,3.16507 -0.34898,0.76691 -1.041711,1.36032 -1.892948,1.62155 l -0.302725,0.0929 -11.336867,0.006 c -6.235277,0.003 -11.435589,-0.009 -11.556252,-0.027 z m 15.450456,-3.00532 v -1.09602 l 0.100128,-0.21875 c 0.233787,-0.51077 0.81605,-0.7095 1.308497,-0.44659 0.198433,0.10594 0.431522,0.39654 0.48092,0.59959 0.02292,0.0942 0.03904,0.59226 0.03916,1.20998 l 1.94e-4,1.04986 2.702286,-0.0114 c 2.504623,-0.0106 2.710903,-0.0168 2.820078,-0.0849 0.186578,-0.11637 0.371065,-0.31964 0.457565,-0.50413 0.07781,-0.16597 0.07999,-0.21136 0.08995,-1.87315 l 0.01021,-1.70306 -0.299767,-0.0949 c -0.552699,-0.17492 -1.165885,-0.56566 -1.639325,-1.04461 -0.415197,-0.42004 -0.82521,-1.19851 -0.979764,-1.86024 -0.10744,-0.46001 -0.106993,-1.23434 9.76e-4,-1.69408 0.140505,-0.59826 0.421143,-1.17454 0.806066,-1.65523 0.416721,-0.5204 1.18459,-1.04762 1.809057,-1.24209 l 0.299979,-0.0934 2.9e-4,-1.61197 c 1.93e-4,-1.05918 -0.01379,-1.67574 -0.04074,-1.79791 -0.0552,-0.25019 -0.302321,-0.55897 -0.549318,-0.68636 l -0.192174,-0.0991 -2.647695,-0.0119 -2.647696,-0.0119 v 1.06632 c 0,1.18132 -0.0155,1.29616 -0.209923,1.5554 -0.244823,0.32645 -0.625675,0.46144 -0.996198,0.3531 -0.322691,-0.0943 -0.519472,-0.27062 -0.651192,-0.5833 -0.06362,-0.15103 -0.07007,-0.26737 -0.07079,-1.27787 l -7.73e-4,-1.11172 -7.65193,0.0109 -7.651929,0.011 -0.192142,0.0991 c -0.246999,0.12739 -0.494121,0.43617 -0.54932,0.68636 -0.02695,0.12217 -0.04092,0.73873 -0.04074,1.79791 l 2.9e-4,1.61197 0.299978,0.0947 c 0.638811,0.20169 1.402685,0.72719 1.81224,1.2467 0.834842,1.05901 1.096373,2.35217 0.728935,3.6043 -0.361851,1.23309 -1.356933,2.26698 -2.545598,2.64488 l -0.295555,0.094 -2.9e-4,1.61197 c -1.93e-4,1.05027 0.01389,1.67617 0.04036,1.79618 0.067,0.3037 0.353965,0.62462 0.650621,0.72762 0.05017,0.0174 3.534589,0.0333 7.743151,0.0352 l 7.65193,0.004 z"
           id="path3245" />
        <path
           style="fill:#008397;fill-opacity:1;stroke:#000000;stroke-width:0.0146953;stroke-miterlimit:4;stroke-dasharray:none;stroke-opacity:1;stop-color:#000000"
           d="m 69.07541,258.91181 c -0.204827,-0.0863 -0.428991,-0.31472 -0.520347,-0.5301 -0.07408,-0.17466 -0.07599,-0.23361 -0.07599,-2.34813 0,-2.39065 -0.0046,-2.33794 0.22931,-2.61648 0.171909,-0.20468 0.373441,-0.30716 0.648387,-0.32969 0.418453,-0.0343 0.776874,0.17088 0.95218,0.54504 0.08007,0.1709 0.08093,0.1925 0.09119,2.30196 0.0067,1.37053 -0.003,2.18616 -0.02719,2.28858 -0.09974,0.42275 -0.453422,0.7161 -0.890585,0.73867 -0.166826,0.009 -0.309826,-0.009 -0.406956,-0.0498 z"
           id="path5541" />
      </g>
    </g>
  </g>
</svg>
