<?xml version="1.0" encoding="UTF-8" standalone="no"?>
<!-- Created with Inkscape (http://www.inkscape.org/) -->

<svg
   width="500"
   height="500"
   viewBox="0 0 132.29167 132.29166"
   version="1.1"
   id="svg5"
   inkscape:version="1.1.2 (0a00cf5339, 2022-02-04)"
   sodipodi:docname="LoyaltyGift0_BronzeToken.svg"
   xmlns:inkscape="http://www.inkscape.org/namespaces/inkscape"
   xmlns:sodipodi="http://sodipodi.sourceforge.net/DTD/sodipodi-0.dtd"
   xmlns="http://www.w3.org/2000/svg"
   xmlns:svg="http://www.w3.org/2000/svg">
  <sodipodi:namedview
     id="namedview7"
     pagecolor="#ffffff"
     bordercolor="#000000"
     borderopacity="0.25"
     inkscape:pageshadow="2"
     inkscape:pageopacity="0.0"
     inkscape:pagecheckerboard="0"
     inkscape:document-units="mm"
     showgrid="false"
     units="px"
     width="300px"
     inkscape:zoom="0.66368545"
     inkscape:cx="-64.789729"
     inkscape:cy="-3.7668447"
     inkscape:window-width="1920"
     inkscape:window-height="1016"
     inkscape:window-x="0"
     inkscape:window-y="0"
     inkscape:window-maximized="1"
     inkscape:current-layer="layer1" />
  <defs
     id="defs2" />
  <g
     inkscape:label="Layer 1"
     inkscape:groupmode="layer"
     id="layer1">
    <rect
       style="fill:none;fill-opacity:1;stroke:#8996a8;stroke-width:4;stroke-miterlimit:4;stroke-dasharray:none;stroke-opacity:1;stop-color:#000000"
       id="rect1024"
       width="132.42368"
       height="131.92612"
       x="0.057618521"
       y="0.39242876"
       ry="0.13213767" />
    <g
       id="SVGRepo_bgCarrier"
       stroke-width="0"
       transform="matrix(2.7384525,0,0,2.3993487,-62.800536,16.843982)" />
    <g
       id="SVGRepo_tracerCarrier"
       stroke-linecap="round"
       stroke-linejoin="round"
       transform="matrix(2.7384525,0,0,2.3993487,-62.800536,16.843982)" />
    <g
       id="SVGRepo_bgCarrier-1"
       stroke-width="0"
       transform="matrix(2.0741819,0,0,2.0741819,-1.3950413,-1.3604372)" />
    <g
       id="SVGRepo_tracerCarrier-1"
       stroke-linecap="round"
       stroke-linejoin="round"
       transform="matrix(2.0741819,0,0,2.0741819,-1.3950413,-1.3604372)" />
    <g
       id="g21766">
      <polygon
         fill="#8fd7f8"
         fill-rule="evenodd"
         points="50.65,41.19 31.32,37.7 13.35,41.19 13.35,49.78 30.44,53.38 50.65,49.78 "
         id="polygon960"
         transform="matrix(2.0443166,0,0,2.0443166,-11.424903,-2.0414874)"
         style="fill:#1daef0;fill-opacity:1" />
      <path
         d="m 11.070198,100.47251 h 84.859581 c 1.942099,0 3.536671,1.59457 3.536671,3.53667 v 7.29821 c 0,1.9421 -1.594572,3.53667 -3.536671,3.53667 H 11.070198 c -1.9421027,0 -3.5366689,-1.57413 -3.5366689,-3.53667 v -7.29821 c 0,-1.9421 1.574124,-3.53667 3.5366689,-3.53667 z"
         fill="#d9f0f3"
         id="path962"
         style="fill:#acdfe6;fill-opacity:1;stroke-width:2.04432" />
      <polygon
         fill="#f0f3f5"
         fill-rule="evenodd"
         points="32.81,56.21 44.87,54.62 44.87,47.14 31.24,45.39 19.13,47.14 19.13,54.62 "
         id="polygon964"
         transform="matrix(2.0443166,0,0,2.0443166,-11.993069,-2.5321232)" />
      <path
         d="M 21.18619,24.043993 C 12.559173,32.630123 7.7345859,44.200954 7.6937001,56.282866 L 21.206633,88.501295 c 8.5248,8.58613 20.116074,13.451605 32.21843,13.512935 L 85.663935,88.521737 C 94.290952,79.956051 99.115538,68.38522 99.156428,56.282866 L 85.643493,24.064435 C 77.118692,15.478307 65.527416,10.612833 53.425063,10.551503 Z"
         fill="#8996a8"
         fill-rule="evenodd"
         id="path968"
         style="stroke-width:2.04432" />
      <path
         d="M 53.425063,56.282866 H 7.6937001 c 0.06134,12.102354 4.9268029,23.693629 13.5129329,32.218429 z"
         fill="#9fa9b6"
         fill-rule="evenodd"
         id="path970"
         style="stroke-width:2.04432" />
      <path
         d="m 53.425063,56.282866 v 45.731364 c 12.122797,0 23.754959,-4.82459 32.320645,-13.410718 z"
         fill="#9fa9b6"
         fill-rule="evenodd"
         id="path972"
         style="stroke-width:2.04432" />
      <path
         d="m 53.425063,56.282866 h 45.731365 c 0,-12.122797 -4.82459,-23.75496 -13.390278,-32.341089 z"
         fill="#9fa9b6"
         fill-rule="evenodd"
         id="path974"
         style="stroke-width:2.04432" />
      <path
         d="m 53.425063,9.5906742 -11.16197,2.3509638 c -7.993277,2.044317 -15.291487,6.214724 -21.11779,12.081911 L 53.404619,56.282866 V 9.5906742 Z"
         fill="#9fa9b6"
         fill-rule="evenodd"
         id="path976"
         style="stroke-width:2.04432" />
      <path
         d="M 53.425063,56.425968 H 17.281545 c 0.04089,9.567401 3.884202,18.725939 10.671333,25.472185 L 53.404619,56.425968 Z"
         fill="#f0f3f5"
         fill-rule="evenodd"
         id="path980"
         style="stroke-width:2.04432" />
      <path
         d="m 53.425063,56.425968 v 36.143517 c 9.587845,0 18.766827,-3.822872 25.533514,-10.589559 z"
         fill="#f0f3f5"
         fill-rule="evenodd"
         id="path982"
         style="stroke-width:2.04432" />
      <path
         d="M 53.425063,56.425968 H 89.56858 c 0,-9.587845 -3.80243,-18.766827 -10.589561,-25.553958 z"
         fill="#f0f3f5"
         fill-rule="evenodd"
         id="path984"
         style="stroke-width:2.04432" />
      <path
         d="M 53.425063,21.386382 H 44.614058 C 38.29712,23.001391 32.532147,26.313184 27.932436,30.933339 L 53.425063,56.425968 Z"
         fill="#f0f3f5"
         fill-rule="evenodd"
         id="path986"
         style="stroke-width:2.04432" />
      <path
         d="m 63.176453,16.561794 c 0,8.58613 -9.75139,17.029157 -9.75139,17.029157 0,0 -9.751391,-8.443027 -9.751391,-17.029157 0,-5.376552 4.354395,-8.8723342 9.751391,-8.8723342 5.396995,0 9.75139,3.4957822 9.75139,8.8723342 z"
         fill="#f2d865"
         fill-rule="evenodd"
         id="path988"
         style="fill:#e374b5;fill-opacity:1;stroke-width:2.04432" />
      <path
         d="m 24.211778,109.12845 h 58.426569 c 2.473623,0 4.477053,2.00343 4.477053,4.47705 0,2.47363 -2.00343,4.47706 -4.477053,4.47706 H 24.211778 c -2.473623,0 -4.477054,-2.00343 -4.477054,-4.47706 0,-2.47362 2.003431,-4.47705 4.477054,-4.47705 z"
         fill="#e4ecf0"
         fill-rule="evenodd"
         id="path990"
         style="stroke-width:2.04432" />
      <path
         d="m 73.990887,109.12845 c 2.473624,0 4.477053,2.00343 4.477053,4.47705 0,2.47363 -2.003429,4.47706 -4.477053,4.47706 h 8.64746 c 2.473623,0 4.477053,-2.00343 4.477053,-4.47706 0,-2.47362 -2.00343,-4.47705 -4.477053,-4.47705 z"
         fill="#d9e3e9"
         fill-rule="evenodd"
         id="path992"
         style="stroke-width:2.04432" />
      <circle
         cx="53.425064"
         cy="16.704897"
         r="2.0443165"
         id="circle994"
         style="stroke-width:2.04432" />
      <path
         d="m 10.985051,115.64982 h 7.11422 c 0.858614,2.57584 3.230021,4.47705 6.112507,4.47705 h 58.426569 c 2.862043,0 5.23345,-1.90121 6.112506,-4.47705 h 7.114221 c 3.066481,0 5.580986,-2.49407 5.580986,-5.58098 v -7.29822 c 0,-3.06647 -2.494072,-5.58098 -5.580986,-5.58098 H 93.616328 V 82.163913 c 4.783698,-7.441311 7.604852,-16.272759 7.604852,-25.758387 0,-22.855461 -16.17054,-42.378684 -38.535364,-46.7944086 -2.105645,-2.45318 -5.35611,-3.9864173 -9.24031,-3.9864173 -3.884203,0 -7.134665,1.5332373 -9.240311,3.9864173 C 21.840371,14.026842 5.6698268,33.550065 5.6698268,56.405526 c 0,9.485628 2.8211578,18.317076 7.6048582,25.758387 v 15.005285 h -2.24875 c -3.0664744,0 -5.5809828,2.494066 -5.5809828,5.580982 v 7.29821 c 0,3.08692 2.4940662,5.58099 5.5809828,5.58099 z m 71.632853,0.38842 H 24.211778 c -1.34925,0 -2.432737,-1.08349 -2.432737,-2.43274 0,-1.34925 1.083487,-2.43273 2.432737,-2.43273 h 58.426569 c 1.349248,0 2.432737,1.08348 2.432737,2.43273 0,1.34925 -1.083489,2.43274 -2.432737,2.43274 z M 9.8402325,58.470283 h 5.6014265 c 0.490637,8.974551 4.047748,17.090488 9.690061,23.36654 l -3.965973,3.965973 C 14.521717,78.504588 10.330868,68.978072 9.8402325,58.490727 Z M 51.380746,34.490451 V 51.499165 L 30.835364,30.953783 c 3.577553,-3.16869 7.891062,-5.560541 12.674763,-7.032449 2.350964,5.008576 6.296496,9.056322 7.891062,10.569117 z M 63.360442,23.921334 c 4.7837,1.451464 9.076764,3.863759 12.674762,7.032449 L 55.489822,51.499165 V 34.490451 c 1.594567,-1.512795 5.519655,-5.560541 7.891062,-10.569117 z m 22.323936,61.86102 -3.965973,-3.965975 c 5.642313,-6.276052 9.199424,-14.391989 9.690061,-23.366538 h 5.60143 c -0.49064,10.507788 -4.681488,20.034302 -11.325518,27.312071 z m -30.214998,14.208 v -5.601427 c 8.974549,-0.490636 17.070043,-4.047748 23.366538,-9.69006 l 3.965974,3.965973 C 75.503681,95.30887 65.977167,99.499719 55.489822,99.990354 Z M 58.351865,58.449841 H 87.319832 C 86.849639,66.300016 83.742277,73.393795 78.835918,78.91345 Z M 75.932988,81.816379 C 70.392891,86.72274 63.319554,89.830101 55.46938,90.300294 V 61.352771 Z M 28.014207,78.933893 C 23.107847,73.393795 20.000486,66.300016 19.530293,58.470283 H 48.49826 Z M 51.380746,61.352771 V 90.300294 C 43.530569,89.830101 36.436792,86.72274 30.917135,81.816379 Z M 91.428908,54.361209 C 90.958715,45.468431 87.442491,37.311607 81.75929,30.974225 l 3.904645,-3.904643 c 6.664473,7.318652 10.793993,16.845167 11.284625,27.271183 h -5.49921 z m -4.088632,0 H 58.372309 L 78.876805,33.856713 c 4.947245,5.580983 8.01372,12.715648 8.483913,20.504496 z m -38.86246,0 H 19.509849 c 0.470193,-7.788848 3.536668,-14.923513 8.483915,-20.504496 L 48.49826,54.361209 Z m -33.056599,0 H 9.9220058 C 10.412641,43.935193 14.521717,34.408679 21.206633,27.090024 l 3.904645,3.904645 c -5.6832,6.337382 -9.199426,14.473762 -9.669619,23.386982 z M 28.03465,84.698867 c 6.276052,5.642312 14.391988,9.199424 23.366539,9.69006 v 5.601427 C 40.8934,99.499719 31.38733,95.30887 24.08912,88.66484 l 3.965973,-3.965973 z m 1.124374,12.776977 c 7.114223,4.231736 15.393705,6.705356 24.266039,6.705356 8.872333,0 17.151815,-2.47362 24.266038,-6.705356 v 9.587846 H 29.159024 Z m 68.177959,5.274336 v 7.29821 c 0,0.83817 -0.654188,1.49235 -1.492351,1.49235 h -7.114223 c -0.858612,-2.57584 -3.230019,-4.47705 -6.112505,-4.47705 H 81.75929 v -5.80586 h 14.0649 c 0.838173,0 1.492348,0.65418 1.492348,1.49235 z M 89.50725,97.169198 h -7.727517 v -2.412295 c 3.904645,-2.902929 5.560543,-4.640597 7.727517,-7.155108 v 9.546961 z M 82.761005,24.187094 78.91769,28.03041 c -3.986417,-3.597997 -8.811003,-6.276052 -14.167115,-7.95239 0.286204,-1.165262 0.449751,-2.350965 0.449751,-3.53667 0,-0.715509 -0.08177,-1.410578 -0.204431,-2.064759 6.766687,1.860329 12.797421,5.192564 17.76511,9.710503 z M 53.404619,9.7133332 c 4.538383,0 7.707073,2.8007128 7.707073,6.8280168 0,5.744532 -5.17212,11.673048 -7.707073,14.208001 -2.514509,-2.534953 -7.707073,-8.463469 -7.707073,-14.208001 0,-4.027304 3.16869,-6.8280168 7.707073,-6.8280168 z M 41.813344,14.476591 c -0.122665,0.674624 -0.204431,1.34925 -0.204431,2.064759 0,1.185705 0.163545,2.371408 0.449749,3.53667 -5.35611,1.676338 -10.160253,4.354393 -14.167114,7.95239 l -3.843315,-3.843316 c 4.96769,-4.517939 10.998422,-7.850174 17.765111,-9.710503 z M 17.342875,87.642682 c 2.391849,2.759829 4.006859,4.374837 7.727515,7.155107 v 2.412295 h -7.727515 v -9.54696 z M 9.5131424,102.77062 c 0,-0.83816 0.6541806,-1.49235 1.4923506,-1.49235 H 25.07039 v 5.80586 h -0.858612 c -2.862044,0 -5.23345,1.90122 -6.112507,4.47706 h -7.11422 c -0.838171,0 -1.4923523,-0.65418 -1.4923523,-1.49235 v -7.29822 z"
         id="path996"
         style="stroke-width:2.04432" />
      <path
         style="fill:#ff934f;fill-opacity:1;stroke:#ff934f;stroke-width:0.338454;stroke-linecap:round;stroke-linejoin:round;stroke-opacity:1;stop-color:#000000"
         d="m 19.693287,53.081966 c 0.500106,-5.077824 2.595968,-11.002526 5.369439,-15.178652 0.970361,-1.461109 2.712105,-3.724823 2.928411,-3.806006 0.06584,-0.02472 4.672827,4.508741 10.237761,10.074329 L 48.346959,54.290886 H 33.960589 19.574221 Z"
         id="path2921" />
      <path
         style="fill:#fff04f;fill-opacity:1;stroke:#fff04f;stroke-width:0.338454;stroke-linecap:round;stroke-linejoin:round;stroke-opacity:1;stop-color:#000000"
         d="M 41.094632,41.123583 30.975529,30.999667 31.691926,30.373756 c 2.224106,-1.943196 7.160438,-4.729167 10.415277,-5.878188 l 1.281222,-0.452295 0.957517,1.70173 c 1.286358,2.286152 3.319767,4.995703 5.316477,7.084298 l 1.644433,1.720109 -0.04657,8.349043 -0.04655,8.349041 z"
         id="path2960" />
      <path
         style="fill:#6dff4f;fill-opacity:1;stroke:#6dff4f;stroke-width:0.338454;stroke-linecap:round;stroke-linejoin:round;stroke-opacity:1;stop-color:#000000"
         d="M 55.601663,42.84701 V 34.538557 L 56.993128,33.0867 c 2.318247,-2.418862 4.323092,-5.11585 5.834543,-7.848817 l 0.665359,-1.203084 1.292967,0.449788 c 3.130684,1.089077 7.708358,3.682716 10.407215,5.896563 l 0.655011,0.537297 -10.123281,10.118506 -10.123279,10.118509 z"
         id="path2999" />
      <path
         style="fill:#4fffd7;fill-opacity:1;stroke:#4fffd7;stroke-width:0.338454;stroke-linecap:round;stroke-linejoin:round;stroke-opacity:1;stop-color:#000000"
         d="m 68.706782,44.141297 10.149592,-10.149591 0.506613,0.592154 c 0.278638,0.325686 1.00691,1.286391 1.618381,2.134902 3.465373,4.808724 5.465723,10.154755 6.223218,16.631854 l 0.10996,0.94027 H 72.935868 58.55719 Z"
         id="path3038" />
      <path
         style="fill:#4f75ff;fill-opacity:1;stroke:#4f75ff;stroke-width:0.338454;stroke-linecap:round;stroke-linejoin:round;stroke-opacity:1;stop-color:#000000"
         d="M 68.76545,68.618818 58.737097,58.589268 h 14.219557 14.219553 l -0.108436,1.406162 c -0.361629,4.689531 -2.395866,10.414526 -5.249427,14.773566 -1.128818,1.724352 -2.738715,3.847124 -2.934389,3.869202 -0.04958,0.0056 -4.602906,-4.503126 -10.118502,-10.01938 z"
         id="path3077" />
      <path
         style="fill:#c34fff;fill-opacity:1;stroke:#c34fff;stroke-width:0.338454;stroke-linecap:round;stroke-linejoin:round;stroke-opacity:1;stop-color:#000000"
         d="M 55.601663,75.943458 V 61.724702 l 10.029553,10.028353 c 5.516255,5.515596 10.025741,10.06892 10.021079,10.118502 -0.0161,0.171292 -1.966274,1.65573 -3.684265,2.804399 -4.346078,2.905837 -10.063369,4.960613 -14.932477,5.366682 l -1.43389,0.119587 z"
         id="path3116" />
      <path
         style="fill:#ff4fbd;fill-opacity:1;stroke:#ff4fbd;stroke-width:0.338454;stroke-linecap:round;stroke-linejoin:round;stroke-opacity:1;stop-color:#000000"
         d="M 47.631752,89.764739 C 41.910348,88.75312 36.144765,86.075587 31.793476,82.409455 L 31.049479,81.782608 41.17638,71.664099 51.303285,61.545593 v 14.282561 14.282565 l -0.940271,-0.01464 c -0.51715,-0.008 -1.746219,-0.157154 -2.731262,-0.331324 z"
         id="path3155" />
      <path
         style="fill:#ff4f4f;fill-opacity:1;stroke:#ff4f4f;stroke-width:0.338454;stroke-linecap:round;stroke-linejoin:round;stroke-opacity:1;stop-color:#000000"
         d="m 26.989604,77.529002 c -3.895145,-4.940455 -6.319151,-10.633955 -7.116266,-16.71468 -0.148831,-1.135365 -0.270606,-2.100471 -0.270606,-2.144678 0,-0.04421 6.427151,-0.08037 14.282557,-0.08037 h 14.282558 l -10.028352,10.02955 c -5.515593,5.516253 -10.082129,10.029553 -10.147858,10.029553 -0.06573,0 -0.516642,-0.503715 -1.002033,-1.11937 z"
         id="path3194" />
    </g>
    <text
       xml:space="preserve"
       style="font-size:4.23333px;line-height:1.25;font-family:Sarai;-inkscape-font-specification:Sarai;text-decoration-color:#000000;fill:#8996a8;fill-opacity:1;stroke:none;stroke-width:3.383;stroke-miterlimit:4;stroke-dasharray:none;stop-color:#000000"
       x="13.642972"
       y="128.15814"
       id="text3815"><tspan
         sodipodi:role="line"
         id="tspan3813"
         style="font-size:4.23333px;fill:#8996a8;fill-opacity:1;stroke:none;stroke-width:3.383;stroke-miterlimit:4;stroke-dasharray:none"
         x="13.642972"
         y="128.15814">Image adapted from: https://www.svgrepo.com/svg/422180/wheel-lucky-game</tspan></text>
    <g
       id="g25"
       transform="matrix(0.1720694,0,0,0.18294669,79.748176,-2.4503938)">
      <path
         style="fill:#dbdee0"
         d="m 162.838,323.191 4.695,113.899 c 0.179,4.35 3.758,7.784 8.112,7.784 h 63.996 c 4.354,0 7.932,-3.434 8.112,-7.784 l 4.695,-113.899 z"
         id="path5" />
      <polygon
         style="fill:#bec0c2"
         points="166.742,417.898 248.543,417.898 251.218,352.993 164.067,352.993 "
         id="polygon7" />
      <path
         style="fill:#dbdee0"
         d="m 243.207,293.527 h -5.093 c -1.41,0 -2.553,1.143 -2.553,2.552 v 5.472 h 10.198 v -5.472 c 0,-1.409 -1.143,-2.552 -2.552,-2.552 z"
         id="path9" />
      <path
         style="fill:#81b75e"
         d="m 251.843,358.213 c -9.967,0 -19.933,0 -29.9,0 -15.873,0 -31.747,0 -47.62,0 -3.627,0 -7.254,0 -10.882,0 -1.273,0 -2.524,1.125 -2.452,2.452 0.789,14.645 1.577,29.289 2.366,43.934 0.112,2.086 0.225,4.173 0.337,6.259 0.071,1.324 1.066,2.452 2.453,2.452 9.384,0 18.768,0 28.152,0 14.84,0 29.68,0 44.519,0 3.441,0 6.882,0 10.324,0 1.066,0 1.771,-0.561 2.118,-1.302 0.188,-0.321 0.311,-0.703 0.335,-1.15 0.789,-14.645 1.578,-29.289 2.366,-43.934 0.112,-2.087 0.225,-4.173 0.337,-6.26 0.071,-1.323 -1.182,-2.451 -2.453,-2.451 z"
         id="path11" />
      <path
         style="fill:#44555e"
         d="m 207.642,369.088 c -6.999,0 -12.673,7.465 -12.673,16.674 0,9.209 5.674,16.674 12.673,16.674 6.999,0 12.673,-7.465 12.673,-16.674 0,-9.209 -5.673,-16.674 -12.673,-16.674 z m 3.57,23.375 c -0.013,0.244 -0.018,0.485 -0.042,0.722 -0.029,0.236 -0.057,0.469 -0.085,0.698 -0.023,0.229 -0.076,0.452 -0.117,0.672 -0.047,0.219 -0.077,0.436 -0.142,0.643 -0.115,0.417 -0.217,0.819 -0.361,1.191 -0.07,0.187 -0.129,0.371 -0.203,0.546 -0.076,0.174 -0.148,0.345 -0.223,0.508 -0.074,0.164 -0.145,0.323 -0.228,0.473 -0.079,0.151 -0.156,0.296 -0.234,0.435 -0.038,0.069 -0.076,0.138 -0.113,0.205 -0.041,0.065 -0.081,0.13 -0.121,0.193 -0.079,0.126 -0.157,0.246 -0.233,0.36 -0.145,0.231 -0.3,0.431 -0.44,0.609 -0.269,0.363 -0.517,0.618 -0.683,0.792 -0.166,0.174 -0.257,0.263 -0.257,0.263 0,0 0.04,-0.122 0.115,-0.35 0.038,-0.113 0.085,-0.251 0.143,-0.411 0.031,-0.079 0.056,-0.168 0.083,-0.262 0.028,-0.093 0.058,-0.192 0.089,-0.297 0.061,-0.209 0.138,-0.434 0.194,-0.689 0.031,-0.126 0.063,-0.257 0.099,-0.391 0.017,-0.067 0.035,-0.135 0.053,-0.204 0.014,-0.071 0.028,-0.143 0.042,-0.216 0.051,-0.293 0.135,-0.592 0.172,-0.921 0.022,-0.163 0.051,-0.328 0.078,-0.496 0.026,-0.169 0.036,-0.345 0.056,-0.522 0.086,-0.705 0.1,-1.472 0.084,-2.267 -0.009,-0.199 -0.018,-0.4 -0.028,-0.603 -0.014,-0.203 -0.04,-0.407 -0.058,-0.613 -0.011,-0.103 -0.018,-0.206 -0.032,-0.31 -0.016,-0.103 -0.032,-0.207 -0.048,-0.31 -0.016,-0.104 -0.032,-0.208 -0.048,-0.313 l -0.023,-0.157 -0.033,-0.156 c -0.044,-0.208 -0.09,-0.417 -0.131,-0.628 -0.056,-0.207 -0.112,-0.416 -0.168,-0.625 -0.047,-0.212 -0.13,-0.414 -0.196,-0.622 -0.034,-0.104 -0.067,-0.208 -0.101,-0.312 l -0.116,-0.286 -0.113,-0.287 -0.055,-0.144 -0.079,-0.167 c -0.098,-0.208 -0.196,-0.416 -0.294,-0.625 -0.204,-0.395 -0.432,-0.798 -0.677,-1.208 -0.487,-0.822 -1.035,-1.684 -1.515,-2.634 -0.118,-0.238 -0.234,-0.48 -0.342,-0.728 -0.054,-0.124 -0.109,-0.265 -0.163,-0.396 -0.029,-0.071 -0.048,-0.125 -0.069,-0.182 l -0.061,-0.17 -0.039,-0.109 -0.029,-0.099 -0.058,-0.198 c -0.038,-0.132 -0.076,-0.263 -0.114,-0.394 -0.042,-0.129 -0.065,-0.264 -0.091,-0.398 -0.025,-0.133 -0.051,-0.266 -0.076,-0.398 -0.177,-1.062 -0.146,-2.109 0.017,-3.046 0.161,-0.94 0.447,-1.774 0.752,-2.504 0.315,-0.727 0.655,-1.352 0.971,-1.892 0.322,-0.536 0.619,-0.988 0.874,-1.354 0.253,-0.366 0.461,-0.648 0.605,-0.839 0.146,-0.19 0.224,-0.292 0.224,-0.292 0,0 -0.026,0.125 -0.074,0.36 -0.051,0.234 -0.128,0.576 -0.235,1.005 -0.105,0.426 -0.232,0.942 -0.377,1.535 -0.062,0.296 -0.149,0.603 -0.21,0.931 -0.031,0.164 -0.075,0.329 -0.104,0.499 -0.031,0.169 -0.063,0.343 -0.095,0.52 -0.117,0.704 -0.197,1.458 -0.194,2.226 0.004,0.768 0.1,1.549 0.321,2.315 0.03,0.095 0.059,0.191 0.089,0.287 0.029,0.096 0.056,0.192 0.098,0.286 0.037,0.094 0.075,0.189 0.113,0.284 l 0.056,0.143 0.026,0.067 c -0.003,-0.007 -0.005,-0.013 -0.003,-0.01 l 0.005,0.01 0.01,0.021 0.018,0.041 0.074,0.165 c 0.025,0.055 0.05,0.113 0.072,0.153 0.047,0.089 0.086,0.172 0.137,0.268 0.1,0.192 0.206,0.386 0.319,0.581 0.448,0.782 0.994,1.592 1.527,2.484 0.264,0.447 0.528,0.914 0.764,1.41 l 0.011,0.023 0.031,0.068 0.018,0.043 0.037,0.085 0.074,0.171 0.145,0.342 0.072,0.171 0.072,0.203 c 0.047,0.136 0.094,0.271 0.141,0.406 0.045,0.135 0.092,0.271 0.134,0.405 0.034,0.131 0.068,0.261 0.102,0.391 0.062,0.261 0.14,0.517 0.18,0.78 0.047,0.261 0.092,0.52 0.133,0.777 0.029,0.259 0.052,0.516 0.077,0.771 l 0.018,0.19 0.006,0.19 c 0.003,0.126 0.006,0.252 0.009,0.377 0.003,0.125 0.006,0.249 0.008,0.373 -0.004,0.123 -0.012,0.246 -0.017,0.368 z"
         id="path13" />
      <g
         id="g19">
        <path
           style="fill:#44555e"
           d="m 246.917,299.312 h -78.55 c -3.054,0 -5.529,2.475 -5.529,5.529 v 9.216 h 89.608 v -9.216 c 0,-3.053 -2.475,-5.529 -5.529,-5.529 z"
           id="path15" />
        <path
           style="fill:#44555e"
           d="m 255.901,313.472 h -96.517 c -1.508,0 -2.731,1.223 -2.731,2.731 v 9.306 c 0,1.508 1.223,2.731 2.731,2.731 h 96.517 c 1.508,0 2.731,-1.223 2.731,-2.731 v -9.306 c 0,-1.508 -1.223,-2.731 -2.731,-2.731 z"
           id="path17" />
      </g>
      <rect
         x="162.838"
         y="310.26099"
         style="fill:#3b4c52"
         width="89.608002"
         height="3.211"
         id="rect21" />
      <polygon
         style="fill:#bec0c2"
         points="163.29,334.152 251.995,334.152 252.238,328.24 163.046,328.24 "
         id="polygon23" />
    </g>
    <g
       id="SVGRepo_bgCarrier-0"
       stroke-width="0"
       transform="matrix(0.0352747,0,0,0.0352747,136.08709,42.875244)" />
    <g
       id="SVGRepo_tracerCarrier-6"
       stroke-linecap="round"
       stroke-linejoin="round"
       transform="matrix(0.0352747,0,0,0.0352747,136.08709,42.875244)" />
    <g
       id="SVGRepo_bgCarrier-5"
       stroke-width="0"
       transform="matrix(0.03363899,0,0,0.03363899,136.65385,40.335905)" />
    <g
       id="SVGRepo_tracerCarrier-5"
       stroke-linecap="round"
       stroke-linejoin="round"
       transform="matrix(0.03363899,0,0,0.03363899,136.65385,40.335905)" />
    <g
       id="g20054"
       transform="matrix(0.19257993,0,0,0.19257993,102.76556,96.449668)">
      <path
         d="m 13.877476,58.83338 c 0.438234,0.301865 0.878718,0.601347 1.342505,0.88984 7.097404,4.402464 16.591325,1.699713 20.734159,-5.650571 0.226267,-0.4005 0.422743,-0.811063 0.610218,-1.222685 1.50906,0.07004 3.092131,-0.105256 4.728689,-0.573676 7.359286,-2.103523 13.571351,-11.358865 10.584476,-19.376031 a 53.431442,53.431442 0 0 0 -3.002234,-6.63044 c 6.505987,0.165364 10.872968,-9.787842 3.907564,-13.59346 -0.5137,-0.280682 -1.03071,-0.554744 -1.54772,-0.828806 4.263712,-1.204415 8.746143,-1.859515 13.377124,-1.859515 28.104432,0 50.887833,23.678667 50.887833,52.890468 0,29.209418 -22.783401,52.889276 -50.887833,52.889276 -28.103374,0 -50.887833,-23.679858 -50.887831,-52.889276 0,-1.362365 0.05653,-2.709238 0.15305,-4.045124 z m 52.205975,21.849206 c 8.57853,0 15.530561,-6.953092 15.530561,-15.530561 0,-8.577469 -6.952163,-15.529634 -15.530561,-15.529634 -8.57641,0 -15.529633,6.952164 -15.529633,15.529634 0,8.577469 6.953223,15.530561 15.529633,15.530561 z"
         fill="#e9933b"
         id="path927"
         style="stroke-width:0.129308" />
      <path
         d="m 119.7593,53.54518 h 4.5534 c 0.51264,2.383146 0.85978,4.633894 1.04739,6.884642 h -4.45569 c -0.21316,-2.250748 -0.58705,-4.501496 -1.1451,-6.884642 z"
         fill="#221714"
         id="path929"
         style="stroke-width:0.129308" />
      <path
         d="m 9.9488613,62.774308 a 2.2192379,2.2192379 0 0 1 1.5077357,-1.994957 c 0.865347,-0.290612 1.821782,-0.02436 2.40764,0.676813 1.899367,2.262267 4.664211,3.458341 7.994923,3.458341 5.202406,0 9.025632,-2.990186 10.229518,-8.000483 0.26731,-1.109487 1.335885,-1.837274 2.458611,-1.679722 0.765652,0.10433 1.453455,0.155302 2.103657,0.155302 9.149953,0 16.879685,-7.728805 16.879685,-16.879685 0,-2.53858 -0.574602,-4.99375 -1.708582,-7.29825 a 2.2173843,2.2173843 0 0 1 0.483777,-2.607294 c 2.80814,-2.598423 4.417954,-6.213125 4.417954,-9.914415 0,-2.352163 -0.654569,-4.699827 -1.892746,-6.788918 a 2.2204295,2.2204295 0 0 1 -0.1177,-2.0326908 2.2168548,2.2168548 0 0 1 1.587704,-1.2736588 c 3.767753,-0.7594289 7.607794,-1.1449689 11.40997,-1.1449689 22.848803,0 42.616462,13.3348895 52.000632,32.6189045 0,0 0.24851,2.078103 -1.97047,2.078103 -2.06592,0 -3.0344,-2.045798 -3.15767,-2.327671 -9.05674,-16.615819 -26.652166,-27.93192 -46.872492,-27.93192 -2.562941,0 -5.143622,0.189593 -7.705503,0.565732 0.760091,2.002107 1.15609,4.1145 1.15609,6.236957 0,4.406965 -1.698653,8.7051 -4.706448,12.022438 1.0041,2.489724 1.512239,5.105756 1.512239,7.79752 0,11.555341 -9.761231,21.317631 -21.316574,21.317631 -0.26519,0 -0.533692,-0.0066 -0.806694,-0.01986 -2.162308,5.935753 -7.368023,9.543702 -13.984958,9.543702 -2.792517,0 -5.322226,-0.620147 -7.495788,-1.820591 1.181775,28.404048 24.658405,50.979853 53.347636,50.979853 25.913263,0 47.553682,-19.420785 52.372262,-43.252238 h 4.49012 C 119.69601,102.53206 96.077189,122.9474 67.711008,122.9474 c -31.889,0 -57.8320534,-25.859903 -57.8320534,-57.749963 0,-0.730037 0.02211,-1.420089 0.069907,-2.423129 z"
         fill="#221714"
         id="path931"
         style="stroke-width:0.129308" />
      <path
         d="m 120.03455,75.551277 c 0,1.332443 0.99298,2.413067 2.21898,2.413067 1.2248,0 2.31999,-1.080624 2.31999,-2.413067 0,-1.332576 -1.09506,-2.41214 -2.31999,-2.41214 -1.226,0 -2.21898,1.079564 -2.21898,2.41214 z M 120.8766,60.46557 c 0,1.332442 0.98079,2.413067 2.19236,2.413067 1.21037,0 2.29113,-1.080625 2.29113,-2.413067 0,-1.332575 -1.08063,-2.4132 -2.29113,-2.4132 -1.21157,-1.29e-4 -2.19236,1.080625 -2.19236,2.4132 z m -1.0707,-6.620378 c 0.25632,1.308082 1.47001,2.170251 2.71043,1.928362 1.24162,-0.244141 2.03825,-1.502309 1.78074,-2.809331 -0.25632,-1.307023 -1.46894,-2.170119 -2.70937,-1.926112 -1.24149,0.243082 -2.03812,1.500058 -1.7818,2.807081 z"
         fill="#221714"
         id="path933"
         style="stroke-width:0.129308" />
      <path
         d="m 115.04729,55.813405 c 0,0 -8.14135,-7.562249 -9.32406,0 -1.1827,7.564501 -3.54823,6.565962 -5.61958,7.065232 -2.071487,0.499269 -3.846665,-2.163498 -2.959077,-4.826399 0.88759,-2.662768 1.479008,2.999056 2.662769,-5.600657 1.183898,-8.59852 0.296308,-10.964984 -0.88759,-10.077526 -1.183893,0.886529 -5.324475,7.669888 -5.91576,10.195228 -0.592477,2.525075 1.182701,5.7782 -1.183895,8.145856 -2.366595,2.366594 -7.395827,-2.40764 -6.212065,-4.901734 1.183894,-2.494093 1.479007,-1.015087 2.366464,-6.190882 0.887589,-5.176854 2.661708,-7.544508 1.182702,-9.023514 -1.478874,-1.478875 -13.351572,11.062692 -13.311588,15.214396 0.04118,4.152896 -6.186514,-6.306332 -11.080434,-4.1051 -4.893922,2.202423 -4.876181,5.456477 -4.144952,-4.897231 0.731096,-10.352648 2.45411,-10.789823 -0.35403,-11.831655 -2.809199,-1.042891 -0.39494,-1.776237 3.155417,-7.692131 3.549165,-5.915761 4.947277,-5.916953 3.804426,-9.76229 -1.142717,-3.844941 0.484971,-5.63786 0.484971,-5.63786 0,0 38.024412,-2.9795936 47.336282,43.926267 z"
         fill="#904c2a"
         id="path935"
         style="stroke-width:0.129308" />
      <path
         d="m 69.92998,90.445009 c 0,1.959342 1.589824,3.549164 3.549167,3.549164 1.960533,0 3.550357,-1.589822 3.550357,-3.549164 0,-1.961594 -1.589824,-3.550358 -3.550357,-3.550358 -1.959343,0 -3.549167,1.588764 -3.549167,3.550358 z m -19.523653,0 c 0,1.959342 1.588897,3.549164 3.549298,3.549164 1.960402,0 3.550357,-1.589822 3.550357,-3.549164 0,-1.961594 -1.589955,-3.550358 -3.550357,-3.550358 -1.960533,0 -3.549298,1.588764 -3.549298,3.550358 z m 7.099655,10.109571 c 0,3.0111 3.244123,5.45091 7.247145,5.45091 4.003023,0 7.247145,-2.43968 7.247145,-5.45091 0,-3.011108 1.811721,-5.45092 -7.247145,-5.45092 -8.911506,0 -7.247145,2.439812 -7.247145,5.45092 z"
         fill="#221714"
         id="path937"
         style="stroke-width:0.129308" />
      <path
         d="m 60.620356,102.8702 c 0,1.10392 1.836214,1.99827 4.100599,1.99827 2.264517,0 4.099539,-0.89421 4.099539,-1.99827 0,-1.10393 -1.835022,-1.99814 -4.099539,-1.99814 -2.264517,-1.3e-4 -4.100599,0.89408 -4.100599,1.99814 z"
         fill="#d9362f"
         id="path939"
         style="stroke-width:0.129308" />
      <path
         d="m 66.083451,80.682586 c 8.565158,0 15.530561,-6.966596 15.530561,-15.530561 0,-8.56317 -6.965403,-15.529634 -15.530561,-15.529634 -8.561979,0 -15.529633,6.966464 -15.529633,15.529634 0,8.563965 6.967654,15.530561 15.529633,15.530561 z m 0,-26.624367 c 6.117667,0 11.093675,4.977198 11.093675,11.093806 0,6.116474 -4.97614,11.093673 -11.093675,11.093673 -6.116606,0 -11.092746,-4.977199 -11.092746,-11.093673 0,-6.116608 4.97614,-11.093806 11.092746,-11.093806 z"
         fill="#060001"
         id="path941"
         style="stroke-width:0.129308" />
      <path
         d="m 102.76535,43.557948 c 0,1.307023 1.05958,2.366596 2.3666,2.366596 1.30795,0 2.36765,-1.059573 2.36765,-2.366596 1e-5,-1.307023 -1.0597,-2.367655 -2.36765,-2.367655 -1.30702,0 -2.3666,1.060632 -2.3666,2.367655 z"
         fill="#e4ca69"
         id="path943"
         style="stroke-width:0.129308" />
      <path
         d="m 82.945396,30.395042 c 0,2.858053 2.318801,5.175663 5.176855,5.175663 2.859112,0 5.177913,-2.317742 5.177913,-5.175663 0,-2.860304 -2.318801,-5.177913 -5.177913,-5.177913 -2.858054,-1.29e-4 -5.176855,2.317609 -5.176855,5.177913 z"
         fill="#51b5be"
         id="path945"
         style="stroke-width:0.129308" />
      <path
         d="m 67.22617,34.260371 c 0,2.134637 1.731885,3.865462 3.866522,3.865462 2.134636,0 3.865461,-1.730825 3.865461,-3.865462 0,-2.135828 -1.730825,-3.865461 -3.865461,-3.865461 -2.134637,1.29e-4 -3.866522,1.729766 -3.866522,3.865461 z"
         fill="#da4d5f"
         id="path947"
         style="stroke-width:0.129308" />
      <path
         d="m 72.148954,17.895445 c 0,1.347007 1.091745,2.441002 2.439811,2.441002 1.347934,0 2.440871,-1.093995 2.440871,-2.441002 0,-1.348066 -1.092805,-2.44087 -2.440871,-2.44087 -1.348066,0 -2.439811,1.092936 -2.439811,2.44087 z"
         fill="#9da523"
         id="path949"
         style="stroke-width:0.129308" />
    </g>
    <g
       id="SVGRepo_bgCarrier-3"
       stroke-width="0"
       transform="matrix(0.03335431,0,0,0.03335431,138.70252,-6.8969729)" />
    <g
       id="SVGRepo_tracerCarrier-8"
       stroke-linecap="round"
       stroke-linejoin="round"
       transform="matrix(0.03335431,0,0,0.03335431,138.70252,-6.8969729)" />
    <g
       id="SVGRepo_iconCarrier-6"
       transform="matrix(0.03177374,0,0,0.03177374,98.954958,1.5621917)">
      <path
         d="m 133.65972,592.87738 c 8.1882,28.81075 33.33422,47.78156 100.53783,72.96284 l 83.99356,272.80759 c 0,0 5.5999,5.59625 16.79239,6.99622 30.79456,-2.80967 369.58702,0 369.58702,0 0,0 20.99961,4.18655 29.40797,-19.58747 8.38281,-23.79469 79.80459,-279.80746 79.80459,-279.80746 0,0 100.78595,-1.40362 110.57726,-88.15457 1.39997,-64.34649 -807.71924,-25.09857 -790.70062,34.78285 z"
         fill="#77261c"
         id="path1019" />
      <path
         d="m 697.01237,967.48776 a 27.841357,27.841357 0 0 1 -4.5636,-0.35881 c -15.92394,-0.13136 -348.83676,-2.80481 -379.26399,-0.0219 l -0.70668,0.0645 -0.70424,-0.0888 c -13.36604,-1.67364 -20.35496,-8.3147 -21.10786,-9.06638 l -1.15185,-1.15185 -29.72907,-96.56535 a 6.5562358,6.5562358 0 0 1 12.53165,-3.85936 l 28.67088,93.12928 c 1.74541,1.24672 5.65342,3.52973 11.76903,4.41399 35.91401,-2.76954 366.21905,-0.0766 380.3684,0.0377 l 1.22482,0.12771 c 1.60553,0.28948 16.33506,2.38154 22.81313,-15.92029 8.45093,-24.00268 81.28606,-284.99746 82.02071,-287.63199 l 1.31848,-4.71564 4.90052,-0.0766 c 3.89219,-0.0596 92.97967,-2.37667 106.45396,-78.28055 -186.57601,-15.6819 -735.35725,8.84744 -786.94465,19.94385 3.0724,32.08749 32.0498,58.62253 86.22185,78.92155 l 3.01645,1.13238 25.20805,81.87111 a 6.557132,6.557132 0 0 1 -4.33615,8.19428 6.560781,6.560781 0 0 1 -8.19551,-4.33614 l -23.31668,-75.7336 c -60.13319,-23.17559 -91.07006,-54.83252 -91.96405,-94.11084 -0.0474,-2.02395 0.76993,-3.92747 2.30248,-5.35177 2.61263,-2.43384 6.55834,-6.1071 108.59953,-12.65937 63.30169,-4.06369 145.48174,-7.91332 231.39951,-10.84098 211.75243,-7.20907 385.98897,-7.01689 466.10129,0.53032 l 6.64957,0.62275 -0.75046,6.63741 c -9.29262,82.3187 -93.76176,94.51222 -115.29047,96.27952 -10.05645,36.0174 -72.95068,261.02397 -81.02941,283.96846 -7.01812,19.82952 -22.25119,24.89545 -32.51564,24.89545 z"
         fill="#040000"
         id="path1021" />
      <path
         d="m 256.49374,833.89182 a 6.555916,6.555916 0 0 1 -6.26278,-4.62685 l -13.05345,-42.39451 a 6.555916,6.555916 0 1 1 12.53043,-3.85814 l 13.05345,42.39451 a 6.5547,6.5547 0 0 1 -6.26765,8.48499 z"
         fill="#040000"
         id="path1023" />
      <path
         d="m 361.08067,890.33351 c -12.06824,3.68786 -24.98059,-3.53703 -28.83873,-16.13315 L 279.49662,701.25311 c -3.83017,-12.59125 2.83035,-25.787 14.90345,-29.43715 12.07189,-3.69516 24.96235,3.5346 28.784,16.12585 l 52.79641,172.95576 c 3.83503,12.58517 -2.82549,25.7785 -14.89981,29.43594 z m 109.88031,4.07099 c -12.52922,1.58364 -24.02944,-7.70776 -25.67875,-20.77702 L 422.4764,694.26054 c -1.65419,-13.04737 7.13852,-24.91613 19.66531,-26.52166 12.50733,-1.58363 23.99903,7.70776 25.65321,20.77703 l 22.83016,179.36207 c 1.65297,13.04858 -7.13974,24.92708 -19.6641,26.52652 z M 620.59642,694.26054 597.7918,873.62748 c -1.6554,13.06926 -13.12034,22.36066 -25.65564,20.77702 -12.52314,-1.59945 -21.34018,-13.47794 -19.66775,-26.52652 l 22.80461,-179.36207 c 1.68216,-13.06927 13.15319,-22.36066 25.68119,-20.77703 12.50611,1.60553 21.3195,13.47551 19.64221,26.52166 z m 143.00654,6.99257 -52.77087,172.94725 c -3.85449,12.59125 -16.74495,19.82101 -28.81805,16.13315 -12.07432,-3.65745 -18.72754,-16.85077 -14.89981,-29.4408 l 52.77086,-172.9509 c 3.85449,-12.58274 16.74374,-19.81736 28.81806,-16.12585 12.06945,3.64893 18.72875,16.8459 14.89981,29.43715 z"
         fill="#f1dd81"
         id="path1025" />
      <path
         d="m 912.359,538.27961 c -9.14787,30.54157 -58.06303,80.93576 -123.74018,19.86844 -9.1722,-6.12047 -16.81671,-9.16855 -35.16476,9.14666 -18.32737,18.33954 -27.44727,77.31602 -109.94721,74.25213 -45.84276,-3.03469 -84.07628,-42.17315 -102.42068,-66.61248 -10.68772,-15.27565 -32.08141,-18.31886 -45.83059,1.52769 -13.7431,19.84168 -64.16892,68.69845 -131.37618,7.63964 -12.21906,-16.80698 -33.63708,-22.91043 -55.02469,0 -21.38883,22.90314 -93.2059,54.95658 -161.94815,-19.84168 -27.50322,-30.55129 1.52282,-103.84619 64.17013,-117.58807 l 6.10345,-9.16369 c 0,0 12.59977,-279.40243 307.27906,-294.67564 212.39586,11.65591 300.80586,160.33289 314.56112,316.0742 55.0186,13.73823 82.51939,48.858 73.33868,79.3728 z"
         fill="#f7e0a5"
         id="path1027" />
      <path
         d="m 542.61386,254.28926 c 0,-15.17835 -12.30907,-27.4862 -27.49836,-27.4862 -15.18564,0 -27.49471,12.30785 -27.49471,27.4862 0,15.1674 12.31394,27.47768 27.49471,27.47768 15.18929,0 27.49836,-12.30055 27.49836,-27.47768 z"
         fill="#2eb3e9"
         id="path1029" />
      <path
         d="m 719.72697,300.80099 c 0,-15.17835 -12.31393,-27.48255 -27.4947,-27.48255 -15.1893,0 -27.49836,12.3042 -27.49836,27.48255 0,15.17469 12.30907,27.48011 27.49836,27.48011 15.18077,0 27.4947,-12.30542 27.4947,-27.48011 z"
         fill="#75291c"
         id="path1031" />
      <path
         d="m 708.37758,443.22978 c -15.19416,0 -27.50323,12.29569 -27.50323,27.50079 0,15.17591 12.30907,27.47768 27.50323,27.47768 15.18564,0 27.4947,-12.30298 27.4947,-27.47768 -0.004,-15.20024 -12.30906,-27.50079 -27.4947,-27.50079 z"
         fill="#6ab82e"
         id="path1033" />
      <path
         d="m 525.32157,415.74723 c -15.18808,0 -27.50323,12.30056 -27.50323,27.4862 0,15.16618 12.31515,27.49714 27.50323,27.49714 15.1832,0 27.49349,-12.32609 27.49349,-27.49714 0.004,-15.18564 -12.31029,-27.48619 -27.49349,-27.4862 z"
         fill="#eed922"
         id="path1035" />
      <path
         d="m 359.61137,309.34192 c -15.18565,0 -27.49471,12.30907 -27.49471,27.48012 0,15.17834 12.30906,27.48254 27.49471,27.48254 15.18807,0 27.49835,-12.3042 27.49835,-27.48254 0,-15.17105 -12.3115,-27.48012 -27.49835,-27.48012 z"
         fill="#e94b49"
         id="path1037" />
      <path
         d="m 310.29117,443.22978 c -15.21361,0 -27.52754,12.29569 -27.52754,27.50079 0,15.17591 12.31393,27.47768 27.52754,27.47768 15.18321,0 27.50079,-12.30298 27.50079,-27.47768 -0.006,-15.20024 -12.31758,-27.50079 -27.50079,-27.50079 z"
         fill="#75291c"
         id="path1039" />
      <path
         d="M 834.64889,458.43488 C 820.89242,302.696 732.48364,154.0178 520.08656,142.36068 c -104.35096,5.40772 -173.30119,43.95261 -218.8715,91.46536 44.95486,-37.76402 108.15315,-66.42882 197.05818,-71.03863 212.39708,11.6559 300.80707,160.33532 314.56233,316.0742 55.01983,13.73823 82.5194,48.85799 73.33869,79.37523 -1.79284,5.99277 -5.13892,12.736 -9.8205,19.26637 16.58197,-10.06376 27.73433,-26.66762 31.63503,-39.69309 9.1795,-30.51846 -18.31885,-65.637 -73.3399,-79.37524 z"
         fill="#d7c293"
         id="path1041" />
      <path
         d="m 289.50929,225.24132 a 6.5547,6.5547 0 0 1 -4.49184,-11.33115 c 17.70584,-16.64643 37.56698,-31.1181 59.03244,-43.02092 a 6.560781,6.560781 0 0 1 8.91434,2.55425 6.560781,6.560781 0 0 1 -2.55669,8.91435 c -20.5143,11.3725 -39.49483,25.20318 -56.40885,41.10401 a 6.540104,6.540104 0 0 1 -4.4894,1.77946 z"
         fill="#040000"
         id="path1043" />
      <path
         d="m 635.6361,656.63031 c -2.13827,0 -4.31912,-0.0426 -6.55591,-0.12527 -56.02328,-3.69516 -99.21935,-55.63771 -111.1319,-71.47287 -4.53927,-6.46226 -11.17425,-10.21336 -17.87977,-10.21336 h -0.045 c -7.03636,0.017 -13.765,4.13546 -18.94648,11.59631 -4.21209,6.06452 -27.15657,36.54284 -65.28062,40.90089 -26.79047,3.04321 -53.92515,-7.67006 -80.64993,-31.88681 l -0.89642,-0.99373 c -5.65098,-7.76006 -12.95615,-12.2896 -20.56539,-12.75302 -8.60661,-0.50355 -17.69124,4.09654 -26.36597,13.36726 -13.93527,14.88278 -42.76184,29.83732 -75.85645,29.83732 h -0.44395 c -25.05114,-0.0973 -62.93314,-8.92407 -101.1326,-50.38446 -12.914793,-14.31111 -16.007872,-37.12789 -8.31835,-61.08313 11.09275,-34.55418 40.6041,-62.04767 75.62656,-70.71146 l 3.89463,-5.82977 c 1.00102,-15.12848 9.98956,-112.92961 78.1723,-195.4855 a 6.555916,6.555916 0 0 1 10.11119,8.34755 c -69.66177,84.34629 -75.24464,188.55373 -75.29086,189.59489 l -0.0851,1.82204 -8.80731,13.18481 -2.57979,0.56558 c -38.49381,8.42539 -60.98948,38.94385 -68.55615,62.51595 -6.24454,19.45854 -4.18046,37.49035 5.52327,48.24254 28.05178,30.44791 58.84998,45.97655 91.49699,46.10792 h 0.41597 c 33.30381,0 57.30284,-16.12099 66.25976,-25.68484 14.44369,-15.43742 27.98609,-18.05492 36.73988,-17.49542 11.38224,0.69573 21.99334,6.92203 29.94436,17.55015 23.64266,21.27206 47.17827,30.7228 69.87585,28.14422 25.21291,-2.88022 45.92668,-20.84514 56.00139,-35.35208 7.6956,-11.08302 18.23736,-17.19985 29.68285,-17.23026 h 0.0754 c 10.97721,0 21.61871,5.83465 28.48722,15.6223 10.93463,14.52762 50.93545,62.76651 101.20071,66.08217 61.57088,2.31343 81.00023,-30.80672 95.14958,-54.96387 4.68644,-7.99846 8.73189,-14.91319 13.7212,-19.88912 20.14941,-20.06913 31.64354,-18.9635 44.70429,-10.27296 l 0.82831,0.65194 c 25.04506,23.23154 50.23607,32.25535 72.8181,26.11785 25.19831,-6.85513 40.51775,-29.91152 44.67024,-43.73489 3.02496,-10.03457 1.5143,-20.805 -4.36291,-31.14973 -10.93464,-19.23352 -35.33505,-34.78041 -66.93967,-42.65237 l -4.53319,-1.12874 -0.41477,-4.65482 c -8.10914,-91.587 -55.46377,-306.11383 -319.45433,-320.74727 -44.96823,2.35843 -86.12211,10.95896 -122.32196,25.56685 -3.34728,1.35984 -7.1738,-0.26758 -8.5312,-3.62582 a 6.558348,6.558348 0 0 1 3.62704,-8.53485 c 37.64239,-15.18808 80.33612,-24.11093 126.8965,-26.51801 l 0.3503,-0.017 0.34786,0.0195 c 104.0627,5.69598 186.41546,42.62318 244.7692,109.75625 48.41769,55.70217 78.43502,131.12196 86.9492,218.34727 32.90364,9.10165 58.50334,26.338 70.64942,47.71101 7.70046,13.53876 9.60764,27.85717 5.52327,41.40931 -5.97939,19.91101 -25.36495,44.87092 -53.78649,52.60423 -18.87471,5.14378 -48.89935,4.29722 -84.78538,-28.79252 -6.80405,-4.51616 -11.60118,-7.14461 -27.7477,8.92894 -3.78516,3.78151 -7.43531,10.01267 -11.66564,17.23391 -14.44613,24.67044 -36.05146,61.5502 -100.58162,61.55506 z"
         fill="#040000"
         id="path1045" />
    </g>
  </g>
</svg>
