<?xml version="1.0" encoding="UTF-8" standalone="no"?>
<!-- Created with Inkscape (http://www.inkscape.org/) -->

<svg
   width="500"
   height="500"
   viewBox="0 0 132.29167 132.29166"
   version="1.1"
   id="svg5"
   inkscape:version="1.1.2 (0a00cf5339, 2022-02-04)"
   sodipodi:docname="LoyaltyGift0_FridaysFifteenPercent.svg"
   xmlns:inkscape="http://www.inkscape.org/namespaces/inkscape"
   xmlns:sodipodi="http://sodipodi.sourceforge.net/DTD/sodipodi-0.dtd"
   xmlns="http://www.w3.org/2000/svg"
   xmlns:svg="http://www.w3.org/2000/svg">
  <sodipodi:namedview
     id="namedview7"
     pagecolor="#ffffff"
     bordercolor="#000000"
     borderopacity="0.25"
     inkscape:pageshadow="2"
     inkscape:pageopacity="0.0"
     inkscape:pagecheckerboard="0"
     inkscape:document-units="mm"
     showgrid="false"
     units="px"
     width="300px"
     inkscape:zoom="1.3273709"
     inkscape:cx="119.03229"
     inkscape:cy="257.27549"
     inkscape:window-width="2560"
     inkscape:window-height="1376"
     inkscape:window-x="0"
     inkscape:window-y="0"
     inkscape:window-maximized="1"
     inkscape:current-layer="layer1" />
  <defs
     id="defs2" />
  <g
     inkscape:label="Layer 1"
     inkscape:groupmode="layer"
     id="layer1">
    <rect
       style="fill:#0cd494;fill-opacity:0.398857;stroke:#0e0b03;stroke-width:2;stroke-miterlimit:4;stroke-dasharray:none;stroke-opacity:1;stop-color:#000000"
       id="rect1024"
       width="132.42368"
       height="131.92612"
       x="0.057618521"
       y="0.39242876"
       ry="0.13213767" />
    <g
       id="SVGRepo_bgCarrier"
       stroke-width="0"
       transform="matrix(2.7384525,0,0,2.3993487,-62.800536,16.843982)" />
    <g
       id="SVGRepo_tracerCarrier"
       stroke-linecap="round"
       stroke-linejoin="round"
       transform="matrix(2.7384525,0,0,2.3993487,-62.800536,16.843982)" />
    <g
       id="SVGRepo_bgCarrier-0"
       stroke-width="0"
       transform="matrix(3.8873716,0,0,3.8873716,-200.13544,10.383937)" />
    <g
       id="SVGRepo_tracerCarrier-3"
       stroke-linecap="round"
       stroke-linejoin="round"
       transform="matrix(3.8873716,0,0,3.8873716,-200.13544,10.383937)" />
    <path
       d="m 101.9594,16.433563 c -4.17574,0 -7.592262,3.416523 -7.592262,7.592273 0,4.175749 3.416522,7.592272 7.592262,7.592272 4.17575,0 7.59228,-3.416523 7.59228,-7.592272 0,-4.17575 -3.41653,-7.592273 -7.59228,-7.592273 z m 0,3.796136 c 2.11825,0 3.79614,1.677892 3.79614,3.796137 0,2.118244 -1.67789,3.796136 -3.79614,3.796136 -2.118234,0 -3.796126,-1.677892 -3.796126,-3.796136 0,-2.118245 1.677892,-3.796137 3.796126,-3.796137 z M 8.7490799,64.53061 c -2.228332,2.201759 -2.2131475,5.853642 0,8.062993 L 53.391643,117.23617 c 2.201759,2.20935 5.853642,2.22833 8.059197,0 l 55.14267,-55.818392 c 0.93764,-0.949034 2.01954,-1.822145 2.91543,-3.249493 0.89209,-1.427347 1.42735,-3.302638 1.42735,-5.861234 V 10.739358 c 0,-3.1242196 -2.57378,-5.6942036 -5.69421,-5.6942036 H 73.484592 c -4.395926,0 -6.924153,2.368789 -8.92092,4.346576 z m 2.6686841,2.702849 55.806999,-55.142676 c 2.023341,-1.996768 3.067278,-3.2494926 6.263625,-3.2494926 h 41.757492 c 1.0819,0 1.89807,0.812373 1.89807,1.8980676 v 41.575285 c 0,2.076487 -0.35304,3.05589 -0.85034,3.845486 -0.49349,0.797189 -1.30587,1.495678 -2.39156,2.596558 L 58.744195,114.5599 c -0.747839,0.75922 -1.898068,0.75922 -2.668684,-0.008 L 11.432948,69.909735 c -0.770616,-0.770616 -0.778208,-1.928437 -0.01518,-2.680072 z"
       id="path19272"
       style="stroke-width:0.5;stroke-miterlimit:4;stroke-dasharray:none"
       sodipodi:nodetypes="ssssssssssccccccssssccccssssccccccc" />
    <g
       id="SVGRepo_bgCarrier-9"
       stroke-width="0"
       transform="matrix(0.26458333,0,0,0.26458333,-54.42967,28.644034)" />
    <g
       id="SVGRepo_tracerCarrier-9"
       stroke-linecap="round"
       stroke-linejoin="round"
       transform="matrix(0.26458333,0,0,0.26458333,-54.42967,28.644034)" />
    <path
       style="fill:#e4b43e;fill-opacity:1;stroke:#14171b;stroke-width:4.5074;stroke-linecap:round;stroke-linejoin:round;stroke-miterlimit:4;stroke-dasharray:none;stroke-opacity:1;stop-color:#000000"
       d="M 215.08293,434.18431 C 212.5862,433.28197 43.449961,264.31072 42.201862,261.47189 c -0.668918,-1.52147 -0.752541,-2.83226 -0.269151,-4.21891 0.394834,-1.13262 34.330416,-35.22808 77.660669,-78.02655 42.32767,-41.80818 91.72381,-90.613749 109.76921,-108.456805 27.72402,-27.413162 33.51047,-32.784961 37.33001,-34.654971 l 4.52022,-2.213052 h 83.41836 83.41836 l 2.08901,2.089057 2.08902,2.089056 v 83.848595 83.8486 l -2.26011,4.23953 C 438.15727,213.412 416.13014,236.0766 329.31747,323.86865 269.15811,384.7067 220.0454,433.78886 218.94502,434.17246 c -1.18543,0.41325 -2.73828,0.41801 -3.86209,0.0118 z M 389.76439,119.37326 c 19.78076,-3.2097 30.45579,-24.670202 21.04986,-42.317529 -10.71736,-20.107811 -40.2388,-20.062627 -50.97366,0.07802 -9.14822,17.163824 1.42691,39.030259 20.40448,42.190769 2.1852,0.36393 4.1426,0.69875 4.34977,0.74406 0.20718,0.0453 2.53348,-0.26759 5.16955,-0.69532 z"
       id="path2408"
       transform="scale(0.26458333)" />
    <g
       id="SVGRepo_iconCarrier"
       transform="matrix(0.31242187,0,0,0.31242187,31.697869,56.669231)"> <g
   id="g1074"> <path
   d="m 76.830277,24.185765 c 0,-1.895064 1.866131,-3.406775 4.173479,-3.406775 2.314582,0 4.17348,1.540644 4.17348,3.406775 V 39.15098 c 0,1.895063 -1.866131,3.406774 -4.17348,3.406774 -2.314581,0 -4.173479,-1.540643 -4.173479,-3.406774 z m 2.784731,49.141455 h 5.771987 V 91.9379 H 79.615008 Z M 57.901341,91.9379 V 73.32722 h 9.583814 c 1.779334,0 3.139151,0.151894 4.072216,0.455683 0.940299,0.303789 1.699771,0.867968 2.271183,1.692538 0.578646,0.824569 0.860735,1.837198 0.860735,3.023421 0,1.034329 -0.224225,1.923996 -0.665442,2.669002 -0.433984,0.752239 -1.041562,1.359817 -1.822733,1.829966 -0.491848,0.296556 -1.164524,0.54248 -2.018025,0.737773 0.687141,0.231458 1.186223,0.455683 1.497244,0.687141 0.209759,0.151894 0.513548,0.484616 0.9186,0.976464 0.397819,0.499082 0.665442,0.882434 0.80287,1.157291 l 2.791964,5.374168 H 69.698473 L 66.62442,86.25271 C 66.233834,85.514937 65.886647,85.037555 65.582858,84.820563 65.170573,84.53124 64.693191,84.393812 64.17241,84.393812 h -0.506315 v 7.536855 h -5.764754 z m 5.764754,-11.044892 h 2.430311 c 0.26039,0 0.773938,-0.0868 1.526177,-0.253158 0.383352,-0.07233 0.694374,-0.267623 0.933066,-0.585878 0.245924,-0.318255 0.361653,-0.672675 0.361653,-1.08496 0,-0.600345 -0.18806,-1.063261 -0.571412,-1.388749 -0.383353,-0.325488 -1.099427,-0.484616 -2.148221,-0.484616 H 63.666095 Z M 39.160465,73.32722 h 14.22021 v 3.999886 h -8.448222 v 3.247647 h 7.225833 v 3.768427 h -7.225833 v 7.587487 h -5.771988 z m 0.05063,-49.141455 c 0,-1.895064 1.866131,-3.406775 4.173479,-3.406775 2.314582,0 4.17348,1.540644 4.17348,3.406775 V 39.15098 c 0,1.895063 -1.866131,3.406774 -4.17348,3.406774 -2.314581,0 -4.173479,-1.540643 -4.173479,-3.406774 z M 23.320049,52.669581 H 101.16231 V 37.169119 c 0,-0.578645 -0.22423,-1.121125 -0.60758,-1.475545 -0.38335,-0.383353 -0.896897,-0.607578 -1.475543,-0.607578 h -6.733985 c -1.287483,0 -2.314578,-1.902296 -2.314578,-3.189782 0,-1.287486 1.027095,-2.314582 2.314578,-2.314582 h 7.616419 c 1.866129,0 3.529739,0.773938 4.752129,1.989094 1.22238,1.222388 1.98909,2.922159 1.98909,4.752124 v 66.58761 c 0,1.86613 -0.77394,3.52974 -1.98909,4.75213 -1.22239,1.22239 -2.92216,1.98909 -4.752129,1.98909 H 24.600302 c -1.866131,0 -3.529737,-0.77394 -4.752125,-1.98909 -1.222388,-1.21516 -1.996326,-2.92216 -1.996326,-4.75213 V 36.32285 c 0,-1.866131 0.773938,-3.536969 1.989093,-4.752124 1.222388,-1.222389 2.922159,-1.989094 4.752125,-1.989094 h 8.158899 c 1.287486,0 2.314582,1.027096 2.314582,2.314582 0,1.287486 -1.027096,3.189782 -2.314582,3.189782 h -7.276465 c -0.578645,0 -1.121125,0.224225 -1.511711,0.607578 -0.383352,0.383352 -0.607577,0.8969 -0.607577,1.511711 v 15.500462 z m 77.849491,6.372332 H 23.320049 v 42.964417 c 0,0.57865 0.224225,1.12113 0.607578,1.51171 0.383352,0.38335 0.8969,0.60758 1.511711,0.60758 h 73.603684 c 0.578645,0 1.121128,-0.22423 1.511708,-0.60758 0.38335,-0.38335 0.60758,-0.8969 0.60758,-1.51171 V 59.041913 Z M 54.277575,35.049831 c -1.287486,0 -2.314581,-1.902297 -2.314581,-3.189783 0,-1.287486 1.027095,-2.314581 2.314581,-2.314581 h 15.54386 c 1.287486,0 2.314582,1.027095 2.314582,2.314581 0,1.287486 -1.027096,3.189783 -2.314582,3.189783 z"
   id="path1072"
   style="stroke-width:0.723307" />
 </g>
 </g>
    <text
       xml:space="preserve"
       style="font-size:35.2778px;line-height:1.25;font-family:STIXGeneral;-inkscape-font-specification:STIXGeneral;text-align:center;text-decoration-color:#000000;text-anchor:middle;fill:#d6a93d;fill-opacity:1;stroke:none;stroke-width:2;stroke-linecap:round;stroke-linejoin:round;stroke-miterlimit:4;stroke-dasharray:none;stroke-opacity:1;stop-color:#000000"
       x="21.813377"
       y="103.89201"
       id="text20693"
       transform="rotate(-45)"><tspan
         sodipodi:role="line"
         id="tspan20691"
         style="font-style:normal;font-variant:normal;font-weight:normal;font-stretch:normal;font-size:35.2778px;font-family:Impact;-inkscape-font-specification:Impact;fill:#000000;fill-opacity:1;stroke:none;stroke-width:2;stroke-opacity:1"
         x="21.813377"
         y="103.89201">15</tspan></text>
    <text
       xml:space="preserve"
       style="font-size:4.23333px;line-height:1.25;font-family:Sarai;-inkscape-font-specification:Sarai;text-decoration-color:#000000;fill:#e4b43e;fill-opacity:1;stroke:none;stroke-width:3.38331;stop-color:#000000"
       x="26.852146"
       y="124.32752"
       id="text3815"><tspan
         sodipodi:role="line"
         id="tspan3813"
         style="font-size:4.23333px;fill:#e4b43e;fill-opacity:1;stroke:none;stroke-width:3.38331"
         x="26.852146"
         y="124.32752">Image from: https://www.svgrepo.com/svg/490755/friday</tspan></text>
    <text
       xml:space="preserve"
       style="font-size:4.23333px;line-height:1.25;font-family:Sarai;-inkscape-font-specification:Sarai;text-decoration-color:#000000;fill:#e4b43e;fill-opacity:1;stroke:none;stroke-width:3.38331;stop-color:#000000"
       x="28.276657"
       y="128.43018"
       id="text3815-3"><tspan
         sodipodi:role="line"
         id="tspan3813-7"
         style="font-size:4.23333px;fill:#e4b43e;fill-opacity:1;stroke:none;stroke-width:3.38331"
         x="28.276657"
         y="128.43018">Image from: https://www.svgrepo.com/svg/441016/sale</tspan></text>
  </g>
</svg>
