<?xml version="1.0" encoding="UTF-8" standalone="no"?>
<!-- Created with Inkscape (http://www.inkscape.org/) -->

<svg
   width="500"
   height="500"
   viewBox="0 0 132.29167 132.29166"
   version="1.1"
   id="svg5"
   inkscape:version="1.1.2 (0a00cf5339, 2022-02-04)"
   sodipodi:docname="LoyaltyGift4_FifteenPercentOff.svg"
   xmlns:inkscape="http://www.inkscape.org/namespaces/inkscape"
   xmlns:sodipodi="http://sodipodi.sourceforge.net/DTD/sodipodi-0.dtd"
   xmlns="http://www.w3.org/2000/svg"
   xmlns:svg="http://www.w3.org/2000/svg">
  <sodipodi:namedview
     id="namedview7"
     pagecolor="#ffffff"
     bordercolor="#000000"
     borderopacity="0.25"
     inkscape:pageshadow="2"
     inkscape:pageopacity="0.0"
     inkscape:pagecheckerboard="0"
     inkscape:document-units="mm"
     showgrid="false"
     units="px"
     width="300px"
     inkscape:zoom="0.93859296"
     inkscape:cx="54.336653"
     inkscape:cy="95.355498"
     inkscape:window-width="2560"
     inkscape:window-height="1376"
     inkscape:window-x="0"
     inkscape:window-y="0"
     inkscape:window-maximized="1"
     inkscape:current-layer="layer1" />
  <defs
     id="defs2" />
  <g
     inkscape:label="Layer 1"
     inkscape:groupmode="layer"
     id="layer1">
    <rect
       style="fill:#0cd494;fill-opacity:0.398857;stroke:#0e0b03;stroke-width:2;stroke-miterlimit:4;stroke-dasharray:none;stroke-opacity:1;stop-color:#000000"
       id="rect1024"
       width="132.42368"
       height="131.92612"
       x="0.057618521"
       y="0.39242876"
       ry="0.13213767" />
    <path
       style="opacity:1;fill:#d45900;fill-opacity:0.987373;stroke:#d45a01;stroke-width:2.0134;stroke-linecap:round;stroke-linejoin:round;stroke-miterlimit:4;stroke-dasharray:none;stroke-opacity:0.992157;stop-color:#000000"
       d="M 124.00493,371.9732 C 52.709899,300.6741 33.867612,281.76746 33.867612,279.39563 c 0,-2.38501 24.372684,-19.80162 115.799798,-110.19406 C 227.25277,92.494234 254.39484,56.892667 258.41674,56.49563 l 11.07748,-1.093553 h 83.49241 83.49242 l 2.06793,2.553427 c 2.01332,2.486007 2.06007,4.750583 1.77065,85.766676 -0.26311,73.64668 -0.49357,83.64429 -2.00464,86.96262 -1.61479,3.54608 -24.50555,34.5969 -164.20434,175.5859 -43.83669,44.24155 -47.70986,54.89363 -57.52619,57.10279 -12.95688,2.91594 -20.51855,-19.33719 -92.57753,-91.40029 z m 81.63265,6.66836 c 17.04202,-8.0107 21.5771,-31.44505 8.77342,-45.33541 -6.77376,-7.34866 -11.42795,-9.3767 -21.56915,-9.39864 -7.56383,-0.0164 -9.18311,0.35149 -14.38324,3.26748 -10.09126,5.65869 -15.67741,16.4418 -14.61989,28.22123 0.80952,9.01712 4.77127,15.3723 13.88028,22.26581 5.98205,4.52708 19.37204,4.99688 27.91858,0.97953 z m 57.46188,-71.50364 c 2.28551,-3.26304 2.07673,-7.86814 -0.47231,-10.41718 -2.08595,-2.08595 -3.55141,-2.13085 -69.54824,-2.13085 -75.38746,0 -72.15322,-0.32131 -72.15322,7.16814 0,2.11807 0.79347,4.72781 1.76326,5.79942 1.67339,1.84908 5.25448,1.94839 70.25761,1.94839 h 68.49434 z m -57.174,-29.14495 c 10.02944,-4.99788 15.50204,-13.9322 15.61192,-25.48735 0.16511,-17.36168 -11.92987,-29.29917 -29.68572,-29.29917 -24.3628,0 -37.20634,29.17017 -21.11879,47.96486 8.2136,9.59574 23.62929,12.5839 35.19259,6.82166 z m 119.03731,-27.0938 9.55266,-9.59714 -37.78915,-37.8004 -37.78916,-37.80041 -5.61295,5.54323 c -5.29308,5.22733 -5.6133,5.8489 -5.6189,10.90676 -0.007,6.69278 -1.3786,11.87678 -5.59214,21.14216 l -3.29943,7.25525 4.31736,4.31735 4.31735,4.31735 6.03269,-4.9137 c 3.31799,-2.70253 10.44439,-6.97148 11.42227,-6.97148 0.97788,0 9.69322,13.56163 23.78161,27.6219 14.0884,14.06026 25.86498,25.56685 26.17019,25.57019 0.30521,0.003 4.85363,-4.31263 10.1076,-9.59106 z m 27.78202,-28.91197 c 6.79521,-3.19414 16.40798,-12.34232 20.18085,-19.20551 2.46195,-4.47851 3.12566,-7.02871 3.14148,-12.07069 0.0277,-8.84677 -3.06121,-13.68394 -18.96446,-29.69743 -17.37444,-17.49488 -24.79795,-21.21136 -34.37551,-17.2096 -7.61387,3.18128 -11.58674,7.52442 -14.35794,15.69607 l 1.26914,9.07461 -8.18065,-9.35201 -5.21132,-5.29087 11.66317,-11.69945 11.66317,-11.69944 -5.79612,-5.86902 c -3.18786,-3.22796 -6.29666,-5.86902 -6.90845,-5.86902 -0.61178,0 -10.07955,8.98952 -21.0395,19.97671 l -19.92717,19.97671 18.87226,19.52813 18.87226,19.52814 9.53655,-9.64276 9.53655,-9.64277 -2.34493,-2.49606 c -2.62447,-2.79362 -2.59255,-7.69907 -0.68975,-9.60187 2.86802,-2.86802 18.1607,-3.33078 28.86212,11.98966 11.72398,16.78437 8.07547,23.97018 3.78062,26.26871 -2.48794,1.33151 -5.99841,-3.08265 -14.86578,-11.70536 l -6.67074,-6.4867 -9.84334,9.91083 -9.84333,9.91084 5.85984,5.35065 c 15.15472,13.83789 23.3071,16.19091 35.78098,10.3275 z m 42.52772,-83.33091 c 17.44238,-8.15828 22.57425,-29.19972 10.86565,-44.550725 -9.99863,-13.109081 -30.95524,-14.414782 -43.1881,-2.690833 -11.48007,11.002468 -11.58495,29.920148 -0.22883,41.276258 8.5284,8.5284 21.85137,10.96995 32.55128,5.9653 z"
       id="path78913"
       transform="scale(0.26458333)"
       sodipodi:nodetypes="sssscccssssssssssssssssssscssssssscccscscccssscssssssscccccssscccccssssscccsssssss" />
    <g
       id="SVGRepo_bgCarrier"
       stroke-width="0"
       transform="matrix(2.7384525,0,0,2.3993487,-62.800536,16.843982)" />
    <g
       id="SVGRepo_tracerCarrier"
       stroke-linecap="round"
       stroke-linejoin="round"
       transform="matrix(2.7384525,0,0,2.3993487,-62.800536,16.843982)" />
    <g
       id="SVGRepo_bgCarrier-0"
       stroke-width="0"
       transform="matrix(3.8873716,0,0,3.8873716,-200.13544,10.383937)" />
    <g
       id="SVGRepo_tracerCarrier-3"
       stroke-linecap="round"
       stroke-linejoin="round"
       transform="matrix(3.8873716,0,0,3.8873716,-200.13544,10.383937)" />
    <path
       style="fill:#d45a01;fill-opacity:0.99215686;stroke:#d45a01;stroke-width:0.376685;stroke-linecap:round;stroke-linejoin:round;stroke-miterlimit:4;stroke-dasharray:none;stroke-opacity:0.99215686;stop-color:#000000"
       d="m 49.99098,96.787711 c -1.638564,-0.484828 -2.598557,-1.800516 -2.598557,-3.561369 0,-2.112915 1.524188,-3.585961 3.710458,-3.585961 0.491646,0 1.145228,0.129963 1.452401,0.288808 0.757399,0.391668 1.781347,1.590538 1.927082,2.25629 0.06556,0.299474 0.157422,0.666226 0.204145,0.815004 0.140687,0.44798 -0.323358,1.881164 -0.823021,2.541879 -0.814425,1.076931 -2.552576,1.635897 -3.872508,1.245349 z"
       id="path65406" />
    <path
       style="fill:#d45a01;fill-opacity:0.99215686;stroke:#d45a01;stroke-width:0.376685;stroke-linecap:round;stroke-linejoin:round;stroke-miterlimit:4;stroke-dasharray:none;stroke-opacity:0.99215686;stop-color:#000000"
       d="m 49.585041,70.082087 c -0.636747,-0.253158 -1.549853,-1.117735 -1.911422,-1.809829 -0.409273,-0.783415 -0.353758,-2.424991 0.112948,-3.339812 1.099238,-2.154684 4.030551,-2.560658 5.789401,-0.801809 0.708454,0.708451 1.298461,2.211208 1.107861,2.821726 -0.04525,0.144936 -0.135909,0.508545 -0.201465,0.808019 -0.145735,0.66575 -1.169683,1.864622 -1.927082,2.256287 -0.63264,0.32715 -2.223788,0.362194 -2.970241,0.06542 z"
       id="path65445" />
    <path
       style="fill:#d45a01;fill-opacity:0.99215686;stroke:#d45a01;stroke-width:0.376685;stroke-linecap:round;stroke-linejoin:round;stroke-miterlimit:4;stroke-dasharray:none;stroke-opacity:0.99215686;stop-color:#000000"
       d="m 100.37231,33.232622 c -1.486164,-0.447995 -2.549685,-1.89525 -2.549685,-3.469647 0,-2.157267 1.500796,-3.708501 3.587915,-3.708501 2.36535,0 4.13426,2.232631 3.56381,4.498078 -0.51201,2.033363 -2.63873,3.271896 -4.60204,2.68007 z"
       id="path65484" />
    <path
       d="m 33.904635,78.074663 h 34.165227 c 1.05153,0 1.898068,0.846538 1.898068,1.898068 0,1.05153 -0.846538,1.898068 -1.898068,1.898068 H 33.904635 c -1.051529,0 -1.898068,-0.846538 -1.898068,-1.898068 0,-1.05153 0.846539,-1.898068 1.898068,-1.898068 z m 17.082614,7.592273 c -4.17575,0 -7.592273,3.416522 -7.592273,7.592272 0,4.17575 3.416523,7.592272 7.592273,7.592272 4.17575,0 7.592272,-3.416522 7.592272,-7.592272 0,-4.17575 -3.416522,-7.592272 -7.592272,-7.592272 z m 0,3.796136 c 2.118244,0 3.796136,1.677892 3.796136,3.796136 0,2.118244 -1.677892,3.796137 -3.796136,3.796137 -2.118244,0 -3.796137,-1.677893 -3.796137,-3.796137 0,-2.118244 1.677893,-3.796136 3.796137,-3.796136 z m 0,-30.36909 c -4.17575,0 -7.592273,3.416522 -7.592273,7.592272 0,4.17575 3.416523,7.592273 7.592273,7.592273 4.17575,0 7.592272,-3.416523 7.592272,-7.592273 0,-4.17575 -3.416522,-7.592272 -7.592272,-7.592272 z m 0,3.796136 c 2.118244,0 3.796136,1.677892 3.796136,3.796136 0,2.118244 -1.677892,3.796136 -3.796136,3.796136 -2.118244,0 -3.796137,-1.677892 -3.796137,-3.796136 0,-2.118244 1.677893,-3.796136 3.796137,-3.796136 z M 101.42755,22.101166 c -4.175744,0 -7.592266,3.416523 -7.592266,7.592273 0,4.175749 3.416522,7.592272 7.592266,7.592272 4.17575,0 7.59228,-3.416523 7.59228,-7.592272 0,-4.17575 -3.41653,-7.592273 -7.59228,-7.592273 z m 0,3.796136 c 2.11825,0 3.79614,1.677892 3.79614,3.796137 0,2.118244 -1.67789,3.796136 -3.79614,3.796136 -2.118238,0 -3.79613,-1.677892 -3.79613,-3.796136 0,-2.118245 1.677892,-3.796137 3.79613,-3.796137 z M 8.217226,70.198213 c -2.228332,2.201759 -2.2131475,5.853642 0,8.062993 l 44.642563,44.642564 c 2.201759,2.20935 5.853642,2.22833 8.059197,0 L 116.06166,67.085381 c 0.93764,-0.949034 2.01954,-1.822145 2.91543,-3.249493 0.89209,-1.427347 1.42735,-3.302638 1.42735,-5.861234 V 16.406961 c 0,-3.12422 -2.57378,-5.694204 -5.69421,-5.694204 H 72.952738 c -4.395926,0 -6.924153,2.368789 -8.92092,4.346576 z m 2.668684,2.702849 55.806999,-55.142676 c 2.023341,-1.996768 3.067278,-3.249493 6.263625,-3.249493 h 41.757496 c 1.0819,0 1.89807,0.812373 1.89807,1.898068 v 41.575285 c 0,2.076487 -0.35304,3.05589 -0.85034,3.845486 -0.49349,0.797189 -1.30587,1.495678 -2.39156,2.596558 L 58.212341,120.2275 c -0.747839,0.75922 -1.898068,0.75922 -2.668684,-0.008 L 10.901094,75.577338 c -0.770616,-0.770616 -0.778208,-1.928437 -0.01518,-2.680072 z"
       id="path19272"
       style="stroke-width:0.5;stroke-miterlimit:4;stroke-dasharray:none"
       sodipodi:nodetypes="sssssssssssssssssssssssssssssssssssssccccccssssccccssssccccccc" />
    <text
       xml:space="preserve"
       style="font-size:35.2778px;line-height:1.25;font-family:STIXGeneral;-inkscape-font-specification:STIXGeneral;text-align:center;text-decoration-color:#000000;text-anchor:middle;fill:#d6a93d;fill-opacity:1;stroke:none;stroke-width:2;stroke-linecap:round;stroke-linejoin:round;stroke-miterlimit:4;stroke-dasharray:none;stroke-opacity:1;stop-color:#000000"
       x="21.479166"
       y="107.47012"
       id="text20693"
       transform="rotate(-45)"><tspan
         sodipodi:role="line"
         id="tspan20691"
         style="font-style:normal;font-variant:normal;font-weight:normal;font-stretch:normal;font-size:35.2778px;font-family:Impact;-inkscape-font-specification:Impact;fill:#000000;fill-opacity:1;stroke:none;stroke-width:2;stroke-opacity:1"
         x="21.479166"
         y="107.47012">15</tspan></text>
  </g>
</svg>
