<?xml version="1.0" encoding="UTF-8" standalone="no"?>
<!-- Created with Inkscape (http://www.inkscape.org/) -->

<svg
   width="500"
   height="500"
   viewBox="0 0 132.29167 132.29166"
   version="1.1"
   id="svg5"
   inkscape:version="1.1.2 (0a00cf5339, 2022-02-04)"
   sodipodi:docname="LoyaltyGift5_FreeTour.svg"
   xmlns:inkscape="http://www.inkscape.org/namespaces/inkscape"
   xmlns:sodipodi="http://sodipodi.sourceforge.net/DTD/sodipodi-0.dtd"
   xmlns="http://www.w3.org/2000/svg"
   xmlns:svg="http://www.w3.org/2000/svg">
  <sodipodi:namedview
     id="namedview7"
     pagecolor="#ffffff"
     bordercolor="#000000"
     borderopacity="0.25"
     inkscape:pageshadow="2"
     inkscape:pageopacity="0.0"
     inkscape:pagecheckerboard="0"
     inkscape:document-units="mm"
     showgrid="false"
     units="px"
     width="300px"
     inkscape:zoom="0.93859296"
     inkscape:cx="427.23525"
     inkscape:cy="278.07581"
     inkscape:window-width="1920"
     inkscape:window-height="1043"
     inkscape:window-x="0"
     inkscape:window-y="0"
     inkscape:window-maximized="1"
     inkscape:current-layer="layer1" />
  <defs
     id="defs2" />
  <g
     inkscape:label="Layer 1"
     inkscape:groupmode="layer"
     id="layer1">
    <rect
       style="fill:#c50cd4;fill-opacity:0.398857;stroke:#edb311;stroke-width:2;stroke-miterlimit:4;stroke-dasharray:none;stroke-opacity:1;stop-color:#000000"
       id="rect1024"
       width="132.42368"
       height="131.92612"
       x="-0.066004433"
       y="0.18277486"
       ry="0.13213767" />
    <text
       xml:space="preserve"
       style="font-size:4.93889px;line-height:1.25;font-family:Sarai;-inkscape-font-specification:Sarai;text-decoration-color:#000000;fill:#a5ddd3;fill-opacity:1;stroke:none;stroke-width:3.38331;stop-color:#000000"
       x="20.873587"
       y="127.07148"
       id="text3815-3"><tspan
         sodipodi:role="line"
         id="tspan3813-7"
         style="font-size:4.93889px;fill:#a5ddd3;fill-opacity:1;stroke:none;stroke-width:3.38331"
         x="20.873587"
         y="127.07148">Image from: https://www.svgrepo.com/svg/93031/tourist</tspan></text>
    <g
       id="SVGRepo_bgCarrier"
       stroke-width="0"
       transform="matrix(2.7384525,0,0,2.3993487,-62.800536,16.843982)" />
    <g
       id="SVGRepo_tracerCarrier"
       stroke-linecap="round"
       stroke-linejoin="round"
       transform="matrix(2.7384525,0,0,2.3993487,-62.800536,16.843982)" />
    <g
       id="SVGRepo_bgCarrier-0"
       stroke-width="0"
       transform="matrix(3.8873716,0,0,3.8873716,-200.13544,10.383937)" />
    <g
       id="SVGRepo_tracerCarrier-3"
       stroke-linecap="round"
       stroke-linejoin="round"
       transform="matrix(3.8873716,0,0,3.8873716,-200.13544,10.383937)" />
    <g
       id="SVGRepo_bgCarrier-8"
       stroke-width="0"
       transform="matrix(0.26458333,0,0,0.26458333,-185.00113,-62.659248)" />
    <g
       id="SVGRepo_tracerCarrier-0"
       stroke-linecap="round"
       stroke-linejoin="round"
       transform="matrix(0.26458333,0,0,0.26458333,-185.00113,-62.659248)" />
    <g
       id="SVGRepo_iconCarrier"
       transform="matrix(0.22469042,0,0,0.22469042,8.6250278,5.6740842)">
      <path
         style="fill:#b2834f"
         d="M 322.768,367.304 V 500.87 c 0,6.147 -4.983,11.13 -11.13,11.13 H 200.339 c -6.147,0 -11.13,-4.983 -11.13,-11.13 V 367.304 Z"
         id="path94252" />
      <path
         style="fill:#ce9f63"
         d="m 411.826,155.826 v 155.826 h -0.018 c 0,86.061 -69.762,155.826 -155.819,155.826 v 0 c -86.056,0 -155.819,-69.766 -155.819,-155.826 V 155.826 Z"
         id="path94254" />
      <path
         style="fill:#ffffff"
         d="m 311.639,367.307 c 0,30.734 -24.915,55.65 -55.65,55.65 v 0 c -30.734,0 -55.65,-24.915 -55.65,-55.65 v -0.002 h 111.3 z"
         id="path94256" />
      <path
         style="fill:#a06d3a"
         d="m 252.651,322.783 c 0,6.147 -4.983,11.13 -11.13,11.13 h -2.226 c -6.147,0 -11.13,-4.983 -11.13,-11.13 0,-6.147 4.983,-11.13 11.13,-11.13 h 2.226 c 6.147,-0.001 11.13,4.982 11.13,11.13 z m 20.032,-11.131 h -2.226 c -6.147,0 -11.13,4.983 -11.13,11.13 0,6.147 4.983,11.13 11.13,11.13 h 2.226 c 6.147,0 11.13,-4.983 11.13,-11.13 0,-6.147 -4.982,-11.13 -11.13,-11.13 z"
         id="path94258" />
      <path
         style="fill:#a5ddd3"
         d="m 456.34,178.087 v 50.087 c 0,52.167 -42.439,94.609 -94.605,94.609 -46.467,0 -85.189,-33.685 -93.1,-77.913 h -25.269 c -7.912,44.228 -46.633,77.913 -93.099,77.913 -52.166,0 -94.605,-42.441 -94.605,-94.609 v -50.087 c 0,-6.147 4.983,-11.13 11.13,-11.13 h 166.95 c 6.147,0 11.13,4.983 11.13,11.13 v 44.522 h 22.259 v -44.522 c 0,-6.147 4.983,-11.13 11.13,-11.13 h 166.95 c 6.146,0 11.129,4.983 11.129,11.13 z"
         id="path94260" />
      <path
         style="fill:#d9fcf5"
         d="m 165.774,183.064 -33.39,66.783 c -1.95,3.9 -5.881,6.155 -9.964,6.155 -1.673,0 -3.37,-0.378 -4.969,-1.178 -5.497,-2.749 -7.727,-9.435 -4.978,-14.934 l 33.39,-66.783 c 2.748,-5.498 9.433,-7.727 14.934,-4.978 5.497,2.751 7.727,9.437 4.977,14.935 z m 17.283,29.59 c -5.5,-2.749 -12.184,-0.52 -14.934,4.978 l -11.13,22.261 c -2.749,5.498 -0.52,12.184 4.978,14.934 1.598,0.799 3.296,1.178 4.969,1.178 4.083,0 8.014,-2.255 9.964,-6.155 l 11.13,-22.261 c 2.749,-5.501 0.521,-12.187 -4.977,-14.935 z m 189.209,-44.522 c -5.5,-2.749 -12.184,-0.521 -14.934,4.978 l -33.39,66.783 c -2.749,5.498 -0.52,12.184 4.978,14.934 1.598,0.799 3.296,1.178 4.969,1.178 4.083,0 8.014,-2.255 9.964,-6.155 l 33.39,-66.783 c 2.749,-5.501 0.521,-12.187 -4.977,-14.935 z m 22.26,44.522 c -5.501,-2.749 -12.184,-0.52 -14.934,4.978 l -11.13,22.261 c -2.749,5.498 -0.52,12.184 4.978,14.934 1.598,0.799 3.296,1.178 4.969,1.178 4.083,0 8.014,-2.255 9.964,-6.155 l 11.13,-22.261 c 2.75,-5.501 0.521,-12.187 -4.977,-14.935 z"
         id="path94262" />
      <path
         style="fill:#006571"
         d="m 456.349,155.826 h -11.132 v 11.132 c -0.007,0 -0.013,-0.001 -0.02,-0.001 H 278.249 c -6.147,0 -11.13,4.983 -11.13,11.13 v 44.522 h -22.26 v -44.522 c 0,-6.147 -4.983,-11.13 -11.13,-11.13 H 66.783 v -11.13 H 55.651 c -24.549,0 -44.521,19.972 -44.521,44.522 0,24.55 19.971,44.522 44.521,44.522 h 1.504 c 7.912,44.228 46.633,77.913 93.099,77.913 46.466,0 85.188,-33.685 93.099,-77.913 h 25.269 c 7.911,44.228 46.633,77.913 93.099,77.913 46.466,0 85.188,-33.685 93.099,-77.913 h 1.526 c 24.55,0 44.522,-19.972 44.522,-44.522 0,-24.55 -19.97,-44.523 -44.519,-44.523 z M 33.391,200.348 c 0,-12.274 9.985,-22.261 22.259,-22.261 v 44.522 c -12.274,0 -22.259,-9.988 -22.259,-22.261 z m 189.208,27.826 c 0,39.893 -32.453,72.348 -72.344,72.348 -39.891,0 -72.345,-32.456 -72.345,-72.348 v -38.957 h 144.688 v 38.957 z m 211.468,0 c 0,39.893 -32.453,72.348 -72.345,72.348 -39.892,0 -72.344,-32.455 -72.344,-72.348 v -38.957 h 144.688 v 38.957 z m 22.282,-5.565 h -0.021 v -44.522 h 0.021 c 12.274,0 22.26,9.986 22.26,22.261 0,12.275 -9.987,22.261 -22.26,22.261 z"
         id="path94264" />
      <path
         style="fill:#b94b00"
         d="M 500.847,189.217 H 11.153 c -10.234,0 -15.044,-12.65 -7.394,-19.449 L 89.04,100.174 V 44.522 C 89.04,19.933 108.973,0 133.56,0 h 244.858 c 24.587,0 44.52,19.933 44.52,44.522 v 55.652 l 85.304,69.594 c 7.649,6.8 2.84,19.449 -7.395,19.449 z"
         id="path94266" />
      <path
         style="fill:#cc5200"
         d="M 89.051,100.174 V 44.522 C 89.051,19.933 108.984,0 133.571,0 h 244.858 c 24.587,0 44.519,19.933 44.519,44.522 v 55.652 z"
         id="path94268" />
      <path
         style="fill:#edb311"
         d="M 422.956,100.174 H 89.04 V 66.783 h 333.916 z"
         id="path94270" />
    </g>
  </g>
</svg>
