<?xml version="1.0" encoding="UTF-8" standalone="no"?>
<!-- Created with Inkscape (http://www.inkscape.org/) -->

<svg
   width="500"
   height="500"
   viewBox="0 0 132.29167 132.29166"
   version="1.1"
   id="svg5"
   inkscape:version="1.1.2 (0a00cf5339, 2022-02-04)"
   sodipodi:docname="LoyaltyGift0_BronzeToken.svg"
   xmlns:inkscape="http://www.inkscape.org/namespaces/inkscape"
   xmlns:sodipodi="http://sodipodi.sourceforge.net/DTD/sodipodi-0.dtd"
   xmlns="http://www.w3.org/2000/svg"
   xmlns:svg="http://www.w3.org/2000/svg">
  <sodipodi:namedview
     id="namedview7"
     pagecolor="#ffffff"
     bordercolor="#000000"
     borderopacity="0.25"
     inkscape:pageshadow="2"
     inkscape:pageopacity="0.0"
     inkscape:pagecheckerboard="0"
     inkscape:document-units="mm"
     showgrid="false"
     units="px"
     width="300px"
     inkscape:zoom="1.3273709"
     inkscape:cx="213.95678"
     inkscape:cy="233.54437"
     inkscape:window-width="1920"
     inkscape:window-height="1043"
     inkscape:window-x="0"
     inkscape:window-y="0"
     inkscape:window-maximized="1"
     inkscape:current-layer="layer1" />
  <defs
     id="defs2" />
  <g
     inkscape:label="Layer 1"
     inkscape:groupmode="layer"
     id="layer1">
    <rect
       style="fill:none;fill-opacity:1;stroke:#a05822;stroke-width:4;stroke-miterlimit:4;stroke-dasharray:none;stroke-opacity:1;stop-color:#000000"
       id="rect1024"
       width="132.42368"
       height="131.92612"
       x="0.057618521"
       y="0.39242876"
       ry="0.13213767" />
    <g
       id="SVGRepo_bgCarrier"
       stroke-width="0"
       transform="matrix(2.7384525,0,0,2.3993487,-62.800536,16.843982)" />
    <g
       id="SVGRepo_tracerCarrier"
       stroke-linecap="round"
       stroke-linejoin="round"
       transform="matrix(2.7384525,0,0,2.3993487,-62.800536,16.843982)" />
    <path
       opacity="0.15"
       d="M 42.670133,95.071657 35.762738,47.481545 54.758074,65.327837 66.846015,43.515702 78.933956,65.327837 97.929291,47.481545 91.021897,95.071657 Z"
       fill="#000000"
       id="path955"
       style="opacity:1;fill:#a05822;fill-opacity:1;stroke-width:3.70092" />
    <path
       style="opacity:1;fill:#a05822;fill-opacity:1;stroke:#a05822;stroke-width:9.25683;stroke-linecap:round;stroke-linejoin:round;stroke-miterlimit:4;stroke-dasharray:none;stroke-opacity:1;stop-color:#000000"
       d="m 131.08658,172.09206 c -4.50514,-1.89278 -8.07589,-7.3554 -8.79899,-13.4609 -1.03521,-8.7407 5.39002,-17.37448 12.93002,-17.37448 12.7722,0 17.57327,20.83283 6.71051,29.11827 -2.86434,2.18473 -7.84931,2.97427 -10.84154,1.71711 z"
       id="path3521"
       transform="scale(0.26458333)" />
    <path
       style="opacity:1;fill:#a05822;fill-opacity:1;stroke:#a05822;stroke-width:9.25683;stroke-linecap:round;stroke-linejoin:round;stroke-miterlimit:4;stroke-dasharray:none;stroke-opacity:1;stop-color:#000000"
       d="m 247.38062,156.38538 c -4.54913,-2.77392 -7.8093,-8.77524 -7.8093,-14.37534 0,-8.14785 6.31424,-15.81132 13.03303,-15.81793 5.7306,-0.006 10.24657,4.07337 12.28934,11.10024 1.02574,3.52841 1.08189,4.87331 0.34159,8.18132 -2.17705,9.72807 -10.97653,15.10579 -17.85466,10.91171 z"
       id="path3560"
       transform="scale(0.26458333)" />
    <path
       style="opacity:1;fill:#a05822;fill-opacity:1;stroke:#a05822;stroke-width:9.25683;stroke-linecap:round;stroke-linejoin:round;stroke-miterlimit:4;stroke-dasharray:none;stroke-opacity:1;stop-color:#000000"
       d="m 365.70209,171.82958 c -4.69194,-2.04303 -8.61096,-8.80463 -8.60101,-14.83956 0.01,-6.05261 3.46997,-12.11445 8.35727,-14.64178 9.37289,-4.84691 19.7901,6.33807 17.19087,18.45788 -1.95139,9.09904 -9.73675,14.16311 -16.94713,11.02346 z"
       id="path3599"
       transform="scale(0.26458333)" />
    <path
       d="M 97.929291,47.481545 91.021897,95.071657 H 42.670133 L 35.762738,47.481545 m 62.166553,0 L 78.933956,65.327837 66.846015,43.515702 m 31.083276,3.965843 c 2.861039,0 5.180549,-2.663341 5.180549,-5.948764 0,-3.285424 -2.31951,-5.948764 -5.180549,-5.948764 -2.861043,0 -5.180546,2.66334 -5.180546,5.948764 0,3.285423 2.319503,5.948764 5.180546,5.948764 z M 66.846015,43.515702 54.758074,65.327837 35.762738,47.481545 m 31.083277,-3.965843 c 2.861043,0 5.180546,-2.663341 5.180546,-5.948764 0,-3.285423 -2.319503,-5.948764 -5.180546,-5.948764 -2.861043,0 -5.180546,2.663341 -5.180546,5.948764 0,3.285423 2.319503,5.948764 5.180546,5.948764 z m -31.083277,3.965843 c 2.861147,0 5.180546,-2.663341 5.180546,-5.948764 0,-3.285424 -2.319399,-5.948764 -5.180546,-5.948764 -2.861146,0 -5.180546,2.66334 -5.180546,5.948764 0,3.285423 2.3194,5.948764 5.180546,5.948764 z"
       stroke="#000000"
       stroke-width="5.55138"
       stroke-linecap="round"
       stroke-linejoin="round"
       id="path957"
       style="fill:none;stroke-width:3.251;stroke-miterlimit:4;stroke-dasharray:none" />
    <text
       xml:space="preserve"
       style="font-size:4.23333px;line-height:1.25;font-family:Sarai;-inkscape-font-specification:Sarai;text-decoration-color:#000000;fill:#a05822;fill-opacity:1;stroke:none;stroke-width:3.38331;stop-color:#000000"
       x="21.16293"
       y="127.22098"
       id="text3815-3"><tspan
         sodipodi:role="line"
         id="tspan3813-7"
         style="font-size:4.23333px;fill:#a05822;fill-opacity:1;stroke:none;stroke-width:3.38331"
         x="21.16293"
         y="127.22098">Image adapted from: https://www.svgrepo.com/svg/505354/crown-2</tspan></text>
  </g>
</svg>
