<?xml version="1.0" encoding="UTF-8" standalone="no"?>
<!-- Created with Inkscape (http://www.inkscape.org/) -->

<svg
   width="500"
   height="500"
   viewBox="0 0 132.29167 132.29166"
   version="1.1"
   id="svg5"
   inkscape:version="1.1.2 (0a00cf5339, 2022-02-04)"
   sodipodi:docname="LoyaltyGift3_FivePercentOff.svg"
   xmlns:inkscape="http://www.inkscape.org/namespaces/inkscape"
   xmlns:sodipodi="http://sodipodi.sourceforge.net/DTD/sodipodi-0.dtd"
   xmlns="http://www.w3.org/2000/svg"
   xmlns:svg="http://www.w3.org/2000/svg">
  <sodipodi:namedview
     id="namedview7"
     pagecolor="#ffffff"
     bordercolor="#000000"
     borderopacity="0.25"
     inkscape:pageshadow="2"
     inkscape:pageopacity="0.0"
     inkscape:pagecheckerboard="0"
     inkscape:document-units="mm"
     showgrid="false"
     units="px"
     width="300px"
     inkscape:zoom="0.93859296"
     inkscape:cx="520.99261"
     inkscape:cy="292.45904"
     inkscape:window-width="2560"
     inkscape:window-height="1376"
     inkscape:window-x="0"
     inkscape:window-y="0"
     inkscape:window-maximized="1"
     inkscape:current-layer="layer1" />
  <defs
     id="defs2" />
  <g
     inkscape:label="Layer 1"
     inkscape:groupmode="layer"
     id="layer1">
    <rect
       style="fill:#0cd494;fill-opacity:0.398857;stroke:#0e0b03;stroke-width:2;stroke-miterlimit:4;stroke-dasharray:none;stroke-opacity:1;stop-color:#000000"
       id="rect1024"
       width="132.42368"
       height="131.92612"
       x="0.057618521"
       y="0.39242876"
       ry="0.13213767" />
    <g
       id="SVGRepo_bgCarrier"
       stroke-width="0"
       transform="matrix(2.7384525,0,0,2.3993487,-62.800536,16.843982)" />
    <g
       id="SVGRepo_tracerCarrier"
       stroke-linecap="round"
       stroke-linejoin="round"
       transform="matrix(2.7384525,0,0,2.3993487,-62.800536,16.843982)" />
    <g
       id="SVGRepo_bgCarrier-0"
       stroke-width="0"
       transform="matrix(3.8873716,0,0,3.8873716,-200.13544,10.383937)" />
    <g
       id="SVGRepo_tracerCarrier-3"
       stroke-linecap="round"
       stroke-linejoin="round"
       transform="matrix(3.8873716,0,0,3.8873716,-200.13544,10.383937)" />
    <path
       style="fill:#d47c00;fill-opacity:0.98737305;stroke:#d47c01;stroke-width:0.376685;stroke-linecap:round;stroke-linejoin:round;stroke-miterlimit:4;stroke-dasharray:none;stroke-opacity:0.99215686;stop-color:#000000"
       d="M 55.416465,120.93754 C 55.197202,120.84145 45.660754,110.15819 33.19024,97.677589 6.795704,71.261698 8.1058685,74.985258 10.827833,72.268316 c 4.587388,-4.578924 54.52376,-52.985942 56.424574,-54.806233 1.68646,-1.615017 2.43472,-2.191546 3.169111,-2.441779 0.869055,-0.296117 3.07953,-0.327576 23.016633,-0.327576 H 115.4934 l 0.48324,0.514416 0.48323,0.514417 v 22.173403 22.173404 l -0.59798,1.136216 c -0.43853,0.83322 -1.76846,2.317792 -4.98718,5.567047 -2.41405,2.436956 -11.917573,12.055158 -21.11894,21.373783 -26.462484,26.799706 -31.014328,33.583286 -31.566384,33.695436 -0.274079,0.0557 -2.553661,-0.80723 -2.772921,-0.90331 z m -1.536388,-20.55407 c 1.279771,-0.478817 3.017698,-1.989257 3.774242,-3.280199 0.289229,-0.493535 0.656511,-1.523881 0.816179,-2.289656 0.729686,-3.499586 -1.026602,-7.011289 -4.265983,-8.529852 -0.999787,-0.468683 -1.374394,-0.530296 -3.224173,-0.530296 -1.843114,0 -2.22382,0.06211 -3.189261,0.520263 -3.133611,1.487083 -4.831535,4.666226 -4.354624,8.153474 0.414306,3.029468 2.951457,5.740896 5.9592,6.368536 1.220293,0.25464 3.18461,0.0741 4.48442,-0.41227 z M 69.130309,81.661318 c 1.075041,-0.575345 1.22188,-2.413117 0.253661,-3.174717 -0.512707,-0.403294 -0.693312,-0.407295 -18.386158,-0.407295 -19.581539,0 -18.428477,-0.07206 -18.94882,1.184164 -0.309311,0.746744 -0.136012,1.493441 0.492474,2.121927 l 0.481158,0.481158 h 17.862098 c 11.869724,0 17.990751,-0.06885 18.245587,-0.205237 z M 54.204515,73.659892 c 3.236624,-1.510962 4.995785,-5.027504 4.265983,-8.527648 -1.042522,-4.999977 -6.446192,-7.572862 -11.03434,-5.253855 -2.035151,1.028634 -3.687725,3.359047 -3.999701,5.640266 -0.517636,3.785049 1.49668,7.165355 5.012375,8.411469 1.570006,0.556477 4.254818,0.430421 5.755683,-0.270232 z m 30.313359,-9.270841 c 2.233917,-0.87498 5.129057,-3.547584 6.22548,-5.746959 0.509926,-1.022882 0.595333,-1.421083 0.597987,-2.787955 0.005,-2.565945 -0.431165,-3.254637 -4.866053,-7.683735 -4.317777,-4.312139 -5.434232,-5.066281 -7.489242,-5.058836 -1.54222,0.0056 -2.896201,0.68612 -4.158554,2.090158 -0.844958,0.939797 -0.95471,3.582281 -1.217425,5.081278 -0.04734,0.270102 -0.762254,-1.652138 -1.888257,-2.787277 l -1.483702,-1.495727 3.078332,-2.991236 3.078332,-2.991239 -1.695699,-1.699291 -1.695701,-1.69929 -5.353251,5.356006 -5.353251,5.356008 4.925171,5.108739 c 2.708841,2.809806 4.982543,5.108739 5.052666,5.108739 0.195956,0 4.817716,-4.654333 4.817716,-4.851667 0,-0.09552 -0.867315,-0.565153 -1.141392,-0.890876 -0.665517,-0.790919 -0.01479,-1.518912 0.661856,-1.962246 0.489042,-0.320431 0.554024,-0.318918 1.197977,0.02787 0.374486,0.201676 2.249699,1.962994 4.167138,3.914047 3.598335,3.661413 5.305406,4.735409 4.54615,5.423093 -2.77177,2.51048 -2.729013,-0.168508 -5.696485,-3.040515 l -1.347663,-1.304308 -2.539251,2.550805 -2.539249,2.550808 1.588456,1.509385 c 3.437972,3.266829 5.675508,4.031453 8.527933,2.914219 z m 18.794246,-27.28219 c 1.4837,-0.386356 2.5386,-0.998332 3.63886,-2.111013 3.66649,-3.707868 2.45975,-10.024959 -2.35118,-12.308025 -0.96544,-0.458158 -1.34614,-0.520263 -3.18926,-0.520263 -1.912407,0 -2.195898,0.05054 -3.286378,0.585951 -1.522529,0.747532 -2.96903,2.194034 -3.65262,3.652621 -0.480074,1.024334 -0.535729,1.371475 -0.534853,3.335925 0.0011,2.069872 0.03604,2.25975 0.627168,3.391831 0.652026,1.24869 2.147301,2.810589 3.223475,3.367101 0.873858,0.451887 2.575378,0.886536 3.531498,0.902112 0.4429,0.0072 1.33988,-0.126095 1.99329,-0.29624 z"
       id="path65367"
       sodipodi:nodetypes="sssssscccccssssssssssssssssssscsssssssscssssssscccccccssssssssscccsccsssssscssss" />
    <path
       style="fill:#d47c00;fill-opacity:0.98737305;stroke:#d47c01;stroke-width:0.376685;stroke-linecap:round;stroke-linejoin:round;stroke-miterlimit:4;stroke-dasharray:none;stroke-opacity:0.99215686;stop-color:#000000"
       d="m 49.99098,96.787711 c -1.638564,-0.484828 -2.598557,-1.800516 -2.598557,-3.561369 0,-2.112915 1.524188,-3.585961 3.710458,-3.585961 0.491646,0 1.145228,0.129963 1.452401,0.288808 0.757399,0.391668 1.781347,1.590538 1.927082,2.25629 0.06556,0.299474 0.157422,0.666226 0.204145,0.815004 0.140687,0.44798 -0.323358,1.881164 -0.823021,2.541879 -0.814425,1.076931 -2.552576,1.635897 -3.872508,1.245349 z"
       id="path65406" />
    <path
       style="fill:#d47c00;fill-opacity:0.98737305;stroke:#d47c01;stroke-width:0.376685;stroke-linecap:round;stroke-linejoin:round;stroke-miterlimit:4;stroke-dasharray:none;stroke-opacity:0.99215686;stop-color:#000000"
       d="m 49.585041,70.082087 c -0.636747,-0.253158 -1.549853,-1.117735 -1.911422,-1.809829 -0.409273,-0.783415 -0.353758,-2.424991 0.112948,-3.339812 1.099238,-2.154684 4.030551,-2.560658 5.789401,-0.801809 0.708454,0.708451 1.298461,2.211208 1.107861,2.821726 -0.04525,0.144936 -0.135909,0.508545 -0.201465,0.808019 -0.145735,0.66575 -1.169683,1.864622 -1.927082,2.256287 -0.63264,0.32715 -2.223788,0.362194 -2.970241,0.06542 z"
       id="path65445" />
    <path
       style="fill:#d47c00;fill-opacity:0.98737305;stroke:#d47c01;stroke-width:0.376685;stroke-linecap:round;stroke-linejoin:round;stroke-miterlimit:4;stroke-dasharray:none;stroke-opacity:0.99215686;stop-color:#000000"
       d="m 100.37231,33.232622 c -1.486164,-0.447995 -2.549685,-1.89525 -2.549685,-3.469647 0,-2.157267 1.500796,-3.708501 3.587915,-3.708501 2.36535,0 4.13426,2.232631 3.56381,4.498078 -0.51201,2.033363 -2.63873,3.271896 -4.60204,2.68007 z"
       id="path65484" />
    <path
       d="m 33.904635,78.074663 h 34.165227 c 1.05153,0 1.898068,0.846538 1.898068,1.898068 0,1.05153 -0.846538,1.898068 -1.898068,1.898068 H 33.904635 c -1.051529,0 -1.898068,-0.846538 -1.898068,-1.898068 0,-1.05153 0.846539,-1.898068 1.898068,-1.898068 z m 17.082614,7.592273 c -4.17575,0 -7.592273,3.416522 -7.592273,7.592272 0,4.17575 3.416523,7.592272 7.592273,7.592272 4.17575,0 7.592272,-3.416522 7.592272,-7.592272 0,-4.17575 -3.416522,-7.592272 -7.592272,-7.592272 z m 0,3.796136 c 2.118244,0 3.796136,1.677892 3.796136,3.796136 0,2.118244 -1.677892,3.796137 -3.796136,3.796137 -2.118244,0 -3.796137,-1.677893 -3.796137,-3.796137 0,-2.118244 1.677893,-3.796136 3.796137,-3.796136 z m 0,-30.36909 c -4.17575,0 -7.592273,3.416522 -7.592273,7.592272 0,4.17575 3.416523,7.592273 7.592273,7.592273 4.17575,0 7.592272,-3.416523 7.592272,-7.592273 0,-4.17575 -3.416522,-7.592272 -7.592272,-7.592272 z m 0,3.796136 c 2.118244,0 3.796136,1.677892 3.796136,3.796136 0,2.118244 -1.677892,3.796136 -3.796136,3.796136 -2.118244,0 -3.796137,-1.677892 -3.796137,-3.796136 0,-2.118244 1.677893,-3.796136 3.796137,-3.796136 z M 101.42755,22.101166 c -4.175744,0 -7.592266,3.416523 -7.592266,7.592273 0,4.175749 3.416522,7.592272 7.592266,7.592272 4.17575,0 7.59228,-3.416523 7.59228,-7.592272 0,-4.17575 -3.41653,-7.592273 -7.59228,-7.592273 z m 0,3.796136 c 2.11825,0 3.79614,1.677892 3.79614,3.796137 0,2.118244 -1.67789,3.796136 -3.79614,3.796136 -2.118238,0 -3.79613,-1.677892 -3.79613,-3.796136 0,-2.118245 1.677892,-3.796137 3.79613,-3.796137 z M 8.217226,70.198213 c -2.228332,2.201759 -2.2131475,5.853642 0,8.062993 l 44.642563,44.642564 c 2.201759,2.20935 5.853642,2.22833 8.059197,0 L 116.06166,67.085381 c 0.93764,-0.949034 2.01954,-1.822145 2.91543,-3.249493 0.89209,-1.427347 1.42735,-3.302638 1.42735,-5.861234 V 16.406961 c 0,-3.12422 -2.57378,-5.694204 -5.69421,-5.694204 H 72.952738 c -4.395926,0 -6.924153,2.368789 -8.92092,4.346576 z m 2.668684,2.702849 55.806999,-55.142676 c 2.023341,-1.996768 3.067278,-3.249493 6.263625,-3.249493 h 41.757496 c 1.0819,0 1.89807,0.812373 1.89807,1.898068 v 41.575285 c 0,2.076487 -0.35304,3.05589 -0.85034,3.845486 -0.49349,0.797189 -1.30587,1.495678 -2.39156,2.596558 L 58.212341,120.2275 c -0.747839,0.75922 -1.898068,0.75922 -2.668684,-0.008 L 10.901094,75.577338 c -0.770616,-0.770616 -0.778208,-1.928437 -0.01518,-2.680072 z"
       id="path19272"
       style="stroke-width:0.5;stroke-miterlimit:4;stroke-dasharray:none"
       sodipodi:nodetypes="sssssssssssssssssssssssssssssssssssssccccccssssccccssssccccccc" />
    <text
       xml:space="preserve"
       style="font-size:35.2778px;line-height:1.25;font-family:STIXGeneral;-inkscape-font-specification:STIXGeneral;text-align:center;text-decoration-color:#000000;text-anchor:middle;fill:#d6a93d;fill-opacity:1;stroke:none;stroke-width:2;stroke-linecap:round;stroke-linejoin:round;stroke-miterlimit:4;stroke-dasharray:none;stroke-opacity:1;stop-color:#000000"
       x="18.683889"
       y="105.53756"
       id="text20693"
       transform="rotate(-45)"><tspan
         sodipodi:role="line"
         id="tspan20691"
         style="font-style:normal;font-variant:normal;font-weight:normal;font-stretch:normal;font-size:35.2778px;font-family:Impact;-inkscape-font-specification:Impact;fill:#000000;fill-opacity:1;stroke:none;stroke-width:2;stroke-opacity:1"
         x="18.683889"
         y="105.53756">5</tspan></text>
  </g>
</svg>
