<?xml version="1.0" encoding="UTF-8" standalone="no"?>
<!-- Created with Inkscape (http://www.inkscape.org/) -->

<svg
   width="500"
   height="500"
   viewBox="0 0 132.29167 132.29166"
   version="1.1"
   id="svg5"
   inkscape:version="1.1.2 (0a00cf5339, 2022-02-04)"
   sodipodi:docname="LoyaltyGift4_FifteenPercentOff.svg"
   xmlns:inkscape="http://www.inkscape.org/namespaces/inkscape"
   xmlns:sodipodi="http://sodipodi.sourceforge.net/DTD/sodipodi-0.dtd"
   xmlns="http://www.w3.org/2000/svg"
   xmlns:svg="http://www.w3.org/2000/svg">
  <sodipodi:namedview
     id="namedview7"
     pagecolor="#ffffff"
     bordercolor="#000000"
     borderopacity="0.25"
     inkscape:pageshadow="2"
     inkscape:pageopacity="0.0"
     inkscape:pagecheckerboard="0"
     inkscape:document-units="mm"
     showgrid="false"
     units="px"
     width="300px"
     inkscape:zoom="0.66368545"
     inkscape:cx="159.71421"
     inkscape:cy="247.10501"
     inkscape:window-width="1920"
     inkscape:window-height="1043"
     inkscape:window-x="0"
     inkscape:window-y="0"
     inkscape:window-maximized="1"
     inkscape:current-layer="layer1" />
  <defs
     id="defs2" />
  <g
     inkscape:label="Layer 1"
     inkscape:groupmode="layer"
     id="layer1">
    <rect
       style="fill:#0cd494;fill-opacity:0.398857;stroke:#0e0b03;stroke-width:2;stroke-miterlimit:4;stroke-dasharray:none;stroke-opacity:1;stop-color:#000000"
       id="rect1024"
       width="132.42368"
       height="131.92612"
       x="0.057618521"
       y="0.39242876"
       ry="0.13213767" />
    <path
       style="opacity:1;fill:#d45900;fill-opacity:0.987373;stroke:#d45a01;stroke-width:0.532712;stroke-linecap:round;stroke-linejoin:round;stroke-miterlimit:4;stroke-dasharray:none;stroke-opacity:0.992157;stop-color:#000000"
       d="M 32.400079,94.040459 C 13.536602,75.175906 8.551247,70.173524 8.551247,69.545977 c 0,-0.631033 6.448606,-5.239178 30.638696,-29.155511 20.527793,-20.295482 27.709132,-29.715063 28.77326,-29.820113 l 2.930917,-0.289336 h 22.090699 22.090701 l 0.54714,0.675594 c 0.53269,0.657757 0.54506,1.256926 0.46849,22.692433 -0.0696,19.485684 -0.13059,22.130885 -0.5304,23.00886 -0.42724,0.938233 -6.48376,9.153763 -43.445729,46.457106 -11.598458,11.70557 -12.623234,14.52394 -15.220471,15.10844 -3.428174,0.77151 -5.428866,-5.1163 -24.494471,-24.182991 z m 21.598638,1.764337 c 4.509035,-2.119498 5.708941,-8.319836 2.321301,-11.994994 -1.792224,-1.944333 -3.023645,-2.480918 -5.706838,-2.486723 -2.001263,-0.0043 -2.429698,0.093 -3.805565,0.864521 -2.669979,1.497195 -4.147982,4.350226 -3.868179,7.466867 0.214185,2.385779 1.262398,4.067254 3.67249,5.891162 1.582751,1.19779 5.125519,1.322091 7.386791,0.259167 z M 69.202173,76.886125 c 0.604708,-0.863346 0.549468,-2.081779 -0.124966,-2.756212 -0.551907,-0.551908 -0.939644,-0.563788 -18.401305,-0.563788 -19.946265,0 -19.090539,-0.08501 -19.090539,1.896571 0,0.560406 0.209939,1.250899 0.466529,1.53443 0.442752,0.489235 1.390248,0.515511 18.588993,0.515511 h 18.12246 z M 54.074885,69.174857 c 2.653623,-1.322356 4.101582,-3.686228 4.130654,-6.743528 0.04369,-4.593611 -3.156445,-7.752072 -7.854346,-7.752072 -6.445991,0 -9.844178,7.717941 -5.58768,12.690702 2.173181,2.538873 6.251916,3.329491 9.311372,1.804898 z M 85.570173,62.006289 88.097648,59.467046 78.099269,49.46569 68.100887,39.464332 66.615794,40.930978 c -1.400461,1.383064 -1.485186,1.547522 -1.486667,2.885747 -0.0019,1.770798 -0.364755,3.142398 -1.479587,5.593863 l -0.872975,1.919618 1.142302,1.142299 1.142299,1.142299 1.596149,-1.300083 c 0.877885,-0.715045 2.763411,-1.844538 3.022142,-1.844538 0.258731,0 2.564665,3.588182 6.292218,7.308295 3.727556,3.72011 6.843442,6.764562 6.924196,6.765446 0.08075,7.93e-4 1.284189,-1.14105 2.674302,-2.537635 z m 7.35066,-7.649625 c 1.797899,-0.845116 4.341278,-3.265572 5.339516,-5.081458 0.651391,-1.184939 0.826998,-1.859679 0.831183,-3.193703 0.0073,-2.340708 -0.809945,-3.620543 -5.01768,-7.857445 -4.596987,-4.628854 -6.561124,-5.612172 -9.095186,-4.553373 -2.014504,0.841713 -3.065659,1.990836 -3.798872,4.152918 l 0.335793,2.400991 -2.164463,-2.474386 -1.378829,-1.399876 3.085881,-3.09548 3.08588,-3.095477 -1.533557,-1.552845 c -0.843454,-0.854064 -1.665991,-1.552844 -1.827861,-1.552844 -0.161866,0 -2.66688,2.378477 -5.566701,5.285504 l -5.272396,5.285505 4.993285,5.166817 4.993285,5.16682 2.523212,-2.551313 2.523213,-2.551316 -0.62043,-0.660416 c -0.694391,-0.739145 -0.685945,-2.037046 -0.182496,-2.540495 0.75883,-0.75883 4.805018,-0.881269 7.636436,3.172264 3.101969,4.440865 2.136634,6.34211 1.000289,6.950263 -0.658268,0.352295 -1.58708,-0.815618 -3.933238,-3.097043 l -1.764966,-1.716273 -2.604384,2.622241 -2.604381,2.622243 1.550416,1.415693 c 4.009686,3.661275 6.16667,4.283844 9.467051,2.732484 z m 11.252127,-22.04797 c 4.61496,-2.158545 5.97277,-7.725759 2.87487,-11.787379 -2.64547,-3.468444 -8.190242,-3.813911 -11.426853,-0.71195 -3.037435,2.91107 -3.065185,7.916373 -0.06054,10.92101 2.256473,2.256473 5.781513,2.902466 8.612533,1.578319 z"
       id="path78913"
       sodipodi:nodetypes="sssscccssssssssssssssssssscssssssscccscscccssscssssssscccccssscccccssssscccsssssss" />
    <g
       id="SVGRepo_bgCarrier"
       stroke-width="0"
       transform="matrix(2.7384525,0,0,2.3993487,-62.800536,16.843982)" />
    <g
       id="SVGRepo_tracerCarrier"
       stroke-linecap="round"
       stroke-linejoin="round"
       transform="matrix(2.7384525,0,0,2.3993487,-62.800536,16.843982)" />
    <g
       id="SVGRepo_bgCarrier-0"
       stroke-width="0"
       transform="matrix(3.8873716,0,0,3.8873716,-200.13544,10.383937)" />
    <g
       id="SVGRepo_tracerCarrier-3"
       stroke-linecap="round"
       stroke-linejoin="round"
       transform="matrix(3.8873716,0,0,3.8873716,-200.13544,10.383937)" />
    <path
       style="fill:#d45a01;fill-opacity:0.992157;stroke:#d45a01;stroke-width:0.376685;stroke-linecap:round;stroke-linejoin:round;stroke-miterlimit:4;stroke-dasharray:none;stroke-opacity:0.992157;stop-color:#000000"
       d="m 49.581421,92.410262 c -1.638564,-0.484828 -2.598557,-1.800516 -2.598557,-3.561369 0,-2.112915 1.524188,-3.585961 3.710458,-3.585961 0.491646,0 1.145228,0.129963 1.452401,0.288808 0.757399,0.391668 1.781347,1.590538 1.927082,2.25629 0.06556,0.299474 0.157422,0.666226 0.204145,0.815004 0.140687,0.44798 -0.323358,1.881164 -0.823021,2.541879 -0.814425,1.076931 -2.552576,1.635897 -3.872508,1.245349 z"
       id="path65406" />
    <path
       style="fill:#d45a01;fill-opacity:0.992157;stroke:#d45a01;stroke-width:0.376685;stroke-linecap:round;stroke-linejoin:round;stroke-miterlimit:4;stroke-dasharray:none;stroke-opacity:0.992157;stop-color:#000000"
       d="m 49.175482,65.704638 c -0.636747,-0.253158 -1.549853,-1.117735 -1.911422,-1.809829 -0.409273,-0.783415 -0.353758,-2.424991 0.112948,-3.339812 1.099238,-2.154684 4.030551,-2.560658 5.789401,-0.801809 0.708454,0.708451 1.298461,2.211208 1.107861,2.821726 -0.04525,0.144936 -0.135909,0.508545 -0.201465,0.808019 -0.145735,0.66575 -1.169683,1.864622 -1.927082,2.256287 -0.63264,0.32715 -2.223788,0.362194 -2.970241,0.06542 z"
       id="path65445" />
    <path
       style="fill:#d45a01;fill-opacity:0.992157;stroke:#d45a01;stroke-width:0.376685;stroke-linecap:round;stroke-linejoin:round;stroke-miterlimit:4;stroke-dasharray:none;stroke-opacity:0.992157;stop-color:#000000"
       d="m 99.962751,28.855173 c -1.486164,-0.447995 -2.549685,-1.89525 -2.549685,-3.469647 0,-2.157267 1.500796,-3.708501 3.587914,-3.708501 2.36535,0 4.13426,2.232631 3.56381,4.498078 -0.51201,2.033363 -2.63873,3.271896 -4.602039,2.68007 z"
       id="path65484" />
    <path
       d="m 33.495076,73.697214 h 34.165227 c 1.05153,0 1.898068,0.846538 1.898068,1.898068 0,1.05153 -0.846538,1.898068 -1.898068,1.898068 H 33.495076 c -1.051529,0 -1.898068,-0.846538 -1.898068,-1.898068 0,-1.05153 0.846539,-1.898068 1.898068,-1.898068 z m 17.082614,7.592273 c -4.17575,0 -7.592273,3.416522 -7.592273,7.592272 0,4.17575 3.416523,7.592272 7.592273,7.592272 4.17575,0 7.592272,-3.416522 7.592272,-7.592272 0,-4.17575 -3.416522,-7.592272 -7.592272,-7.592272 z m 0,3.796136 c 2.118244,0 3.796136,1.677892 3.796136,3.796136 0,2.118244 -1.677892,3.796137 -3.796136,3.796137 -2.118244,0 -3.796137,-1.677893 -3.796137,-3.796137 0,-2.118244 1.677893,-3.796136 3.796137,-3.796136 z m 0,-30.36909 c -4.17575,0 -7.592273,3.416522 -7.592273,7.592272 0,4.17575 3.416523,7.592273 7.592273,7.592273 4.17575,0 7.592272,-3.416523 7.592272,-7.592273 0,-4.17575 -3.416522,-7.592272 -7.592272,-7.592272 z m 0,3.796136 c 2.118244,0 3.796136,1.677892 3.796136,3.796136 0,2.118244 -1.677892,3.796136 -3.796136,3.796136 -2.118244,0 -3.796137,-1.677892 -3.796137,-3.796136 0,-2.118244 1.677893,-3.796136 3.796137,-3.796136 z m 50.4403,-40.788952 c -4.175743,0 -7.592265,3.416523 -7.592265,7.592273 0,4.175749 3.416522,7.592272 7.592265,7.592272 4.17575,0 7.59228,-3.416523 7.59228,-7.592272 0,-4.17575 -3.41653,-7.592273 -7.59228,-7.592273 z m 0,3.796136 c 2.11825,0 3.79614,1.677892 3.79614,3.796137 0,2.118244 -1.67789,3.796136 -3.79614,3.796136 -2.118237,0 -3.796129,-1.677892 -3.796129,-3.796136 0,-2.118245 1.677892,-3.796137 3.796129,-3.796137 z M 7.8076675,65.820764 c -2.228332,2.201759 -2.2131475,5.853642 0,8.062993 L 52.45023,118.52632 c 2.201759,2.20935 5.853642,2.22833 8.059197,0 L 115.6521,62.707932 c 0.93764,-0.949034 2.01954,-1.822145 2.91543,-3.249493 0.89209,-1.427347 1.42735,-3.302638 1.42735,-5.861234 V 12.029512 c 0,-3.1242197 -2.57378,-5.6942037 -5.69421,-5.6942037 H 72.543179 c -4.395926,0 -6.924153,2.368789 -8.92092,4.3465757 z M 10.476351,68.523613 66.28335,13.380937 c 2.023341,-1.996768 3.067278,-3.249493 6.263625,-3.249493 h 41.757495 c 1.0819,0 1.89807,0.812373 1.89807,1.898068 v 41.575285 c 0,2.076487 -0.35304,3.05589 -0.85034,3.845486 -0.49349,0.797189 -1.30587,1.495678 -2.39156,2.596558 L 57.802782,115.85005 c -0.747839,0.75922 -1.898068,0.75922 -2.668684,-0.008 L 10.491535,71.199889 C 9.7209195,70.429273 9.7133275,69.271452 10.476355,68.519817 Z"
       id="path19272"
       style="stroke-width:0.5;stroke-miterlimit:4;stroke-dasharray:none"
       sodipodi:nodetypes="sssssssssssssssssssssssssssssssssssssccccccssssccccssssccccccc" />
    <text
       xml:space="preserve"
       style="font-size:35.2778px;line-height:1.25;font-family:STIXGeneral;-inkscape-font-specification:STIXGeneral;text-align:center;text-decoration-color:#000000;text-anchor:middle;fill:#d6a93d;fill-opacity:1;stroke:none;stroke-width:2;stroke-linecap:round;stroke-linejoin:round;stroke-miterlimit:4;stroke-dasharray:none;stroke-opacity:1;stop-color:#000000"
       x="24.284887"
       y="104.0852"
       id="text20693"
       transform="rotate(-45)"><tspan
         sodipodi:role="line"
         id="tspan20691"
         style="font-style:normal;font-variant:normal;font-weight:normal;font-stretch:normal;font-size:35.2778px;font-family:Impact;-inkscape-font-specification:Impact;fill:#000000;fill-opacity:1;stroke:none;stroke-width:2;stroke-opacity:1"
         x="24.284887"
         y="104.0852">15</tspan></text>
    <text
       xml:space="preserve"
       style="font-size:4.23333px;line-height:1.25;font-family:Sarai;-inkscape-font-specification:Sarai;text-decoration-color:#000000;fill:#d45a01;fill-opacity:0.992157;stroke:none;stroke-width:3.38331;stop-color:#000000"
       x="28.276657"
       y="127.77496"
       id="text3815-3"><tspan
         sodipodi:role="line"
         id="tspan3813-7"
         style="font-size:4.23333px;fill:#d45a01;fill-opacity:0.992157;stroke:none;stroke-width:3.38331"
         x="28.276657"
         y="127.77496">Image from: https://www.svgrepo.com/svg/441016/sale</tspan></text>
  </g>
</svg>
